<?xml version="1.0" encoding="utf-8"?>
<!-- Generator: Adobe Illustrator 27.1.1, SVG Export Plug-In . SVG Version: 6.00 Build 0)  -->
<svg version="1.1" xmlns="http://www.w3.org/2000/svg" xmlns:xlink="http://www.w3.org/1999/xlink" x="0px" y="0px"
	 viewBox="0 0 230 130" style="enable-background:new 0 0 230 130;" xml:space="preserve">
<style type="text/css">
	.st0{display:none;}
	.st1{display:inline;}
	.st2{fill:#FFFFFF;}
	.st3{fill:#CC2027;}
	.st4{fill:#BE1E2D;}
	.st5{fill-rule:evenodd;clip-rule:evenodd;fill:#FFFFFF;}
	.st6{display:inline;opacity:0.26;}
	.st7{display:inline;opacity:0.46;fill:#00FF18;}
	.st8{display:inline;opacity:0.67;fill:#FFFFFF;stroke:#000000;stroke-miterlimit:10;}
	.st9{display:inline;opacity:0.25;}
	.st10{fill:#FC0000;}
	.st11{display:inline;opacity:0.54;fill:#FFFFFF;}
	.st12{display:inline;opacity:0.55;fill:#FFFFFF;}
	.st13{fill:#FF0000;}
</style>
<g id="Layer_18" class="st0">
	<rect x="-781.55" y="-43.26" class="st1" width="3500.94" height="279.83"/>
</g>
<g id="Layer_17">
</g>
<g id="GG_POKER">
</g>
<g id="FREAM_ROOM">
	<g>
		<g>
			<g>
				<path class="st2" d="M20.29,69.04H12v-0.56h1.93V49.11H12v-0.56h9.04c7.23,0,11.24,2.6,11.24,9.89
					C32.29,66.7,27.28,69.04,20.29,69.04z M20.76,68.48c3.95,0,5.5-2.55,5.5-9.1v-1.7c0-7.11-1.81-8.57-5.91-8.57h-0.7v19.37H20.76z
					"/>
				<path class="st2" d="M42.26,58.68v9.8h1.9v0.56h-9.51v-0.56h1.9V49.11h-1.9v-0.56h8.84c6.12,0,9.04,0.64,9.04,4.92
					c0,3.57-1.87,4.62-4.97,4.89v0.09c3.16,0.41,4.24,1.64,4.24,5.03v1.55c0,1.9,0.09,2.58,0.91,2.58c0.53,0,0.97-0.23,1.35-2.52
					l0.5,0.06c-0.44,3.34-1.26,4.19-3.98,4.19c-3.69,0-4.77-1.23-4.77-5.36v-2.14c0-2.08-0.41-3.16-1.99-3.16H42.26z M42.26,58.12
					h0.94c2.17,0,3.28-1.2,3.28-4.36v-0.85c0-3.28-1.2-3.8-3.25-3.8h-0.97V58.12z"/>
				<path class="st2" d="M71.73,48.55l0.29,5.79H71.5c-1.61-3.83-2.98-5.15-6.53-5.15h-1.02v9.04h1c1.9,0,3.13-1.61,3.63-3.83h0.44
					v8.66h-0.5C67.81,60.14,66.7,59,64.65,59h-0.7v9.39h1.11c3.72,0,6.29-2.55,7.17-5.74h0.58l-0.23,6.38H56.52V68.4h1.73V49.2
					h-1.73v-0.64H71.73z"/>
				<path class="st2" d="M85.11,62.16h-5.79l-2.25,6.32h2.2v0.56h-4.48v-0.56h1.38l7.46-20.11h2.4l7.38,20.11h1.35v0.56h-9.57v-0.56
					h2.08L85.11,62.16z M79.58,61.52h5.3l-2.55-7.67L79.58,61.52z"/>
				<path class="st2" d="M119.49,48.55v0.56h-1.61v19.37h1.61v0.56h-8.93v-0.56h1.61V50.19h-0.12l-4.39,18.85h-3.66L98.86,50.1
					h-0.12v18.38h1.61v0.56h-3.98v-0.56h1.61V49.11h-1.61v-0.56h7.9l3.89,15.07l3.51-15.07H119.49z"/>
				<path class="st2" d="M135,58.68v9.8h1.9v0.56h-9.51v-0.56h1.9V49.11h-1.9v-0.56h8.84c6.12,0,9.04,0.64,9.04,4.92
					c0,3.57-1.87,4.62-4.97,4.89v0.09c3.16,0.41,4.24,1.64,4.24,5.03v1.55c0,1.9,0.09,2.58,0.91,2.58c0.53,0,0.97-0.23,1.35-2.52
					l0.5,0.06c-0.44,3.34-1.26,4.19-3.98,4.19c-3.69,0-4.77-1.23-4.77-5.36v-2.14c0-2.08-0.41-3.16-1.99-3.16H135z M135,58.12h0.94
					c2.17,0,3.28-1.2,3.28-4.36v-0.85c0-3.28-1.2-3.8-3.25-3.8H135V58.12z"/>
				<path class="st2" d="M159.26,48.23c6.29,0,9.48,3.86,9.48,10.51c0,6.53-3.07,10.59-9.83,10.59c-6.53,0-9.66-3.78-9.66-10.21
					C149.25,52.39,152.74,48.23,159.26,48.23z M162.72,57.83c0-6-0.17-8.98-3.69-8.98c-3.54,0-3.78,3.1-3.78,9.1v2.11
					c0,5.5,0.35,8.66,3.78,8.66c3.28,0,3.69-2.84,3.69-8.72V57.83z"/>
				<path class="st2" d="M181.88,48.23c6.29,0,9.48,3.86,9.48,10.51c0,6.53-3.07,10.59-9.83,10.59c-6.53,0-9.66-3.78-9.66-10.21
					C171.87,52.39,175.36,48.23,181.88,48.23z M185.34,57.83c0-6-0.17-8.98-3.69-8.98c-3.54,0-3.78,3.1-3.78,9.1v2.11
					c0,5.5,0.35,8.66,3.78,8.66c3.28,0,3.69-2.84,3.69-8.72V57.83z"/>
				<path class="st2" d="M217.15,48.55v0.56h-1.61v19.37h1.61v0.56h-8.93v-0.56h1.61V50.19h-0.12l-4.39,18.85h-3.66l-5.15-18.94
					h-0.12v18.38h1.61v0.56h-3.98v-0.56h1.61V49.11h-1.61v-0.56h7.9l3.89,15.07l3.51-15.07H217.15z"/>
			</g>
			<rect x="11.94" y="72.69" class="st4" width="206.12" height="13.14"/>
			<g>
				<path class="st2" d="M29.53,76.04h3.01c1.03,0,1.8,0.15,2.31,0.45c0.51,0.3,0.76,0.83,0.76,1.59c0,0.85-0.31,1.43-0.92,1.75
					c-0.57,0.29-1.38,0.44-2.41,0.44h-0.08v2.75h1.28v0.19h-3.94v-0.19h0.67v-6.78h-0.67V76.04z M32.19,76.23v3.84h0.22
					c0.41,0,0.69-0.14,0.85-0.42c0.16-0.28,0.24-0.73,0.24-1.36V77.8c0-0.58-0.07-0.99-0.22-1.22c-0.15-0.23-0.41-0.35-0.8-0.35
					H32.19z"/>
				<path class="st2" d="M41.64,83.31c-1.14,0-1.99-0.31-2.56-0.93c-0.56-0.62-0.85-1.51-0.85-2.68c0-1.17,0.3-2.09,0.91-2.77
					s1.46-1.01,2.57-1.01c1.11,0,1.94,0.32,2.5,0.96c0.56,0.64,0.85,1.55,0.85,2.72c0,1.17-0.28,2.09-0.86,2.74
					S42.78,83.31,41.64,83.31z M42.95,80.04v-0.76c0-1.25-0.06-2.04-0.18-2.37c-0.14-0.38-0.33-0.61-0.58-0.7
					c-0.14-0.05-0.32-0.08-0.52-0.08c-0.2,0-0.38,0.03-0.53,0.08c-0.15,0.05-0.27,0.15-0.36,0.29c-0.1,0.14-0.17,0.28-0.23,0.43
					c-0.06,0.15-0.1,0.36-0.14,0.64c-0.04,0.4-0.06,0.98-0.06,1.75v0.74c0,0.83,0.03,1.43,0.1,1.78c0.06,0.35,0.15,0.6,0.24,0.75
					c0.21,0.33,0.54,0.5,0.98,0.5c0.54,0,0.89-0.23,1.05-0.68C42.87,81.96,42.95,81.17,42.95,80.04z"/>
				<path class="st2" d="M47.78,76.04h3.12v0.19h-0.56v3.24l0.08-0.02l2.89-3.22h-0.81v-0.19h1.79v0.19h-0.61l-1.76,1.97l2.46,4.82
					h0.55v0.19h-3.29v-0.19h0.48l-1.69-3.27l-0.09,0.02v3.25h0.56v0.19h-3.12v-0.19h0.56v-6.78h-0.56V76.04z"/>
				<path class="st2" d="M57.31,76.04h5.33l0.1,2.03h-0.18c-0.29-0.69-0.59-1.16-0.9-1.42c-0.31-0.26-0.78-0.38-1.38-0.38h-0.36
					v3.17h0.35c0.32,0,0.59-0.12,0.81-0.36c0.22-0.24,0.37-0.57,0.46-0.98h0.15v3.03h-0.17c-0.12-0.51-0.29-0.88-0.5-1.1
					c-0.21-0.22-0.49-0.33-0.86-0.33h-0.25v3.29h0.39c0.63,0,1.16-0.19,1.6-0.56c0.44-0.38,0.74-0.86,0.91-1.44h0.21l-0.08,2.23
					h-5.62v-0.23h0.6v-6.72h-0.6V76.04z"/>
				<path class="st2" d="M68.9,79.58h-0.54v3.43h0.67v0.19h-3.33v-0.19h0.67v-6.78h-0.67v-0.19h3.09c0.89,0,1.52,0.05,1.89,0.14
					c0.37,0.09,0.63,0.2,0.78,0.33c0.33,0.27,0.49,0.69,0.49,1.27s-0.14,1-0.43,1.24c-0.29,0.25-0.72,0.4-1.31,0.45v0.03
					c0.55,0.08,0.94,0.24,1.16,0.49c0.22,0.25,0.33,0.68,0.33,1.27v0.54c0,0.36,0.02,0.59,0.06,0.72c0.04,0.12,0.12,0.18,0.24,0.18
					c0.12,0,0.22-0.06,0.29-0.17c0.07-0.11,0.14-0.35,0.2-0.71l0.17,0.02c-0.08,0.58-0.21,0.97-0.39,1.17
					c-0.19,0.2-0.56,0.3-1.12,0.3s-0.96-0.13-1.19-0.39c-0.24-0.26-0.35-0.76-0.35-1.48v-0.75c0-0.38-0.05-0.66-0.15-0.84
					C69.35,79.67,69.17,79.58,68.9,79.58z M68.36,76.23v3.16h0.33c0.39,0,0.68-0.12,0.87-0.36c0.19-0.24,0.28-0.63,0.28-1.17v-0.3
					c0-0.54-0.09-0.9-0.27-1.07c-0.18-0.17-0.47-0.26-0.87-0.26H68.36z"/>
				<path class="st2" d="M83.24,83.01L82.5,80.8h-2.03l-0.79,2.21h0.77v0.19h-1.57v-0.19h0.48l2.61-7.04h0.84l2.58,7.04h0.47v0.19
					h-3.35v-0.19H83.24z M81.52,77.89l-0.96,2.68h1.85L81.52,77.89z"/>
				<path class="st2" d="M94.02,76.23v6.98h-1.43l-3.51-6.63v6.43h0.56v0.19h-1.4v-0.19h0.56v-6.78h-0.56v-0.19h2.83l2.68,5.14
					v-4.95h-0.56v-0.19h1.4v0.19H94.02z"/>
				<path class="st2" d="M104.21,79.5c0,1.41-0.4,2.39-1.19,2.94c-0.73,0.51-1.73,0.77-3.01,0.77h-2.9v-0.19h0.68v-6.78h-0.68v-0.19
					h3.17c1.31,0,2.29,0.27,2.95,0.8S104.21,78.26,104.21,79.5z M99.78,83.01h0.39c0.69,0,1.18-0.24,1.48-0.73
					c0.3-0.49,0.45-1.31,0.45-2.45v-0.59c0-1.54-0.29-2.46-0.88-2.78c-0.28-0.15-0.68-0.23-1.19-0.23h-0.25V83.01z"/>
				<path class="st2" d="M113.9,83.1c0.34,0,0.64-0.09,0.91-0.28c0.26-0.18,0.39-0.46,0.39-0.83s-0.14-0.66-0.43-0.86
					c-0.28-0.2-0.69-0.37-1.21-0.52c-0.52-0.15-0.9-0.27-1.14-0.38c-0.24-0.11-0.46-0.25-0.67-0.43c-0.42-0.36-0.64-0.91-0.64-1.65
					c0-0.61,0.22-1.13,0.65-1.57c0.43-0.44,1.03-0.66,1.78-0.66c0.36,0,0.74,0.05,1.13,0.16c0.39,0.11,0.64,0.16,0.73,0.16
					c0.1,0,0.18-0.07,0.26-0.21h0.11l0.07,2.07h-0.16c-0.33-0.59-0.67-1.07-1.03-1.43c-0.36-0.36-0.75-0.54-1.17-0.54
					c-0.42,0-0.75,0.1-0.98,0.29c-0.23,0.19-0.35,0.45-0.35,0.78c0,0.32,0.14,0.57,0.41,0.75c0.28,0.17,0.62,0.32,1.02,0.43
					c0.4,0.11,0.67,0.18,0.79,0.23c0.13,0.04,0.28,0.1,0.47,0.17c0.19,0.07,0.34,0.15,0.46,0.23c0.12,0.08,0.25,0.18,0.38,0.3
					c0.13,0.12,0.24,0.25,0.31,0.39c0.18,0.33,0.28,0.72,0.28,1.17c0,0.74-0.23,1.33-0.69,1.78c-0.46,0.45-1.07,0.67-1.82,0.67
					c-0.39,0-0.83-0.05-1.34-0.15c-0.5-0.1-0.78-0.15-0.83-0.15c-0.1,0-0.19,0.1-0.28,0.31h-0.14l-0.1-2.44h0.17
					c0.3,0.59,0.68,1.11,1.15,1.56S113.38,83.1,113.9,83.1z"/>
				<path class="st2" d="M118.92,76.04h3.01c1.03,0,1.8,0.15,2.31,0.45c0.51,0.3,0.76,0.83,0.76,1.59c0,0.85-0.31,1.43-0.92,1.75
					c-0.57,0.29-1.38,0.44-2.41,0.44h-0.08v2.75h1.28v0.19h-3.94v-0.19h0.67v-6.78h-0.67V76.04z M121.58,76.23v3.84h0.22
					c0.41,0,0.69-0.14,0.85-0.42c0.16-0.28,0.24-0.73,0.24-1.36V77.8c0-0.58-0.07-0.99-0.22-1.22c-0.15-0.23-0.41-0.35-0.8-0.35
					H121.58z"/>
				<path class="st2" d="M131.03,83.31c-1.14,0-1.99-0.31-2.56-0.93c-0.56-0.62-0.85-1.51-0.85-2.68c0-1.17,0.3-2.09,0.91-2.77
					c0.6-0.67,1.46-1.01,2.57-1.01s1.94,0.32,2.5,0.96c0.56,0.64,0.85,1.55,0.85,2.72c0,1.17-0.28,2.09-0.86,2.74
					C133.02,82.99,132.17,83.31,131.03,83.31z M132.34,80.04v-0.76c0-1.25-0.06-2.04-0.18-2.37c-0.14-0.38-0.33-0.61-0.58-0.7
					c-0.14-0.05-0.32-0.08-0.52-0.08c-0.2,0-0.38,0.03-0.53,0.08c-0.15,0.05-0.27,0.15-0.36,0.29c-0.1,0.14-0.17,0.28-0.23,0.43
					c-0.06,0.15-0.1,0.36-0.14,0.64c-0.04,0.4-0.06,0.98-0.06,1.75v0.74c0,0.83,0.03,1.43,0.1,1.78c0.06,0.35,0.15,0.6,0.24,0.75
					c0.21,0.33,0.54,0.5,0.98,0.5c0.54,0,0.89-0.23,1.05-0.68C132.26,81.96,132.34,81.17,132.34,80.04z"/>
				<path class="st2" d="M140.28,79.58h-0.54v3.43h0.67v0.19h-3.33v-0.19h0.67v-6.78h-0.67v-0.19h3.09c0.89,0,1.52,0.05,1.89,0.14
					s0.63,0.2,0.78,0.33c0.33,0.27,0.49,0.69,0.49,1.27s-0.14,1-0.43,1.24c-0.29,0.25-0.72,0.4-1.31,0.45v0.03
					c0.55,0.08,0.94,0.24,1.16,0.49c0.22,0.25,0.33,0.68,0.33,1.27v0.54c0,0.36,0.02,0.59,0.06,0.72c0.04,0.12,0.12,0.18,0.24,0.18
					s0.22-0.06,0.29-0.17c0.07-0.11,0.14-0.35,0.2-0.71l0.17,0.02c-0.08,0.58-0.21,0.97-0.39,1.17c-0.19,0.2-0.56,0.3-1.12,0.3
					c-0.56,0-0.96-0.13-1.19-0.39c-0.24-0.26-0.35-0.76-0.35-1.48v-0.75c0-0.38-0.05-0.66-0.15-0.84
					C140.73,79.67,140.55,79.58,140.28,79.58z M139.74,76.23v3.16h0.33c0.39,0,0.68-0.12,0.87-0.36c0.19-0.24,0.28-0.63,0.28-1.17
					v-0.3c0-0.54-0.09-0.9-0.27-1.07c-0.18-0.17-0.47-0.26-0.87-0.26H139.74z"/>
				<path class="st2" d="M152.31,76.04l0.1,2.57h-0.19c-0.3-0.91-0.57-1.53-0.8-1.86c-0.23-0.33-0.57-0.5-1-0.5h-0.12v6.74h0.87
					v0.22h-3.74v-0.22h0.87v-6.74h-0.13c-0.44,0-0.78,0.17-1.01,0.52c-0.24,0.34-0.5,0.96-0.79,1.84h-0.19l0.1-2.57H152.31z"/>
				<path class="st2" d="M157.86,83.1c0.34,0,0.64-0.09,0.91-0.28c0.26-0.18,0.39-0.46,0.39-0.83s-0.14-0.66-0.43-0.86
					c-0.28-0.2-0.69-0.37-1.21-0.52s-0.9-0.27-1.14-0.38c-0.24-0.11-0.46-0.25-0.67-0.43c-0.42-0.36-0.64-0.91-0.64-1.65
					c0-0.61,0.22-1.13,0.65-1.57c0.43-0.44,1.03-0.66,1.78-0.66c0.36,0,0.74,0.05,1.13,0.16c0.39,0.11,0.64,0.16,0.73,0.16
					c0.1,0,0.18-0.07,0.26-0.21h0.11l0.07,2.07h-0.16c-0.33-0.59-0.67-1.07-1.03-1.43c-0.36-0.36-0.75-0.54-1.17-0.54
					c-0.42,0-0.75,0.1-0.98,0.29c-0.23,0.19-0.35,0.45-0.35,0.78c0,0.32,0.14,0.57,0.41,0.75c0.28,0.17,0.62,0.32,1.02,0.43
					c0.4,0.11,0.67,0.18,0.79,0.23c0.13,0.04,0.28,0.1,0.47,0.17c0.19,0.07,0.34,0.15,0.46,0.23c0.12,0.08,0.25,0.18,0.38,0.3
					c0.13,0.12,0.24,0.25,0.31,0.39c0.18,0.33,0.28,0.72,0.28,1.17c0,0.74-0.23,1.33-0.69,1.78c-0.46,0.45-1.07,0.67-1.82,0.67
					c-0.39,0-0.83-0.05-1.34-0.15c-0.5-0.1-0.78-0.15-0.83-0.15c-0.1,0-0.19,0.1-0.28,0.31h-0.14l-0.1-2.44h0.17
					c0.3,0.59,0.68,1.11,1.15,1.56C156.85,82.87,157.34,83.1,157.86,83.1z"/>
				<path class="st2" d="M170.72,76.13c-1.06,0-1.59,1.02-1.59,3.06V80c0,0.97,0.14,1.73,0.42,2.28c0.28,0.55,0.69,0.82,1.24,0.82
					c0.75,0,1.44-0.73,2.07-2.19h0.18l-0.07,2.28h-0.11c-0.04-0.08-0.08-0.13-0.11-0.16c-0.03-0.03-0.08-0.05-0.15-0.05
					c-0.07,0-0.31,0.05-0.74,0.16c-0.43,0.11-0.87,0.16-1.31,0.16c-1.11,0-1.98-0.3-2.59-0.9c-0.61-0.6-0.92-1.5-0.92-2.71
					c0-1.21,0.32-2.14,0.96-2.79c0.64-0.66,1.5-0.98,2.58-0.98c0.42,0,0.82,0.05,1.22,0.16c0.4,0.11,0.63,0.16,0.7,0.16
					c0.07,0,0.12-0.02,0.15-0.05c0.03-0.03,0.07-0.08,0.11-0.16h0.11l0.08,2.22h-0.18c-0.31-0.69-0.62-1.22-0.95-1.58
					C171.51,76.31,171.13,76.13,170.72,76.13z"/>
				<path class="st2" d="M175.95,76.04h3.69v0.23h-1.09v6.72h0.37c0.58,0,1.04-0.18,1.39-0.53c0.34-0.36,0.69-0.9,1.05-1.64h0.22
					l-0.19,2.4h-5.43v-0.23h0.6v-6.72h-0.6V76.04z"/>
				<path class="st2" d="M186.79,82.47c0.22,0.33,0.6,0.5,1.16,0.5c0.56,0,0.99-0.17,1.29-0.52c0.3-0.35,0.45-0.88,0.45-1.59v-4.63
					h-0.67v-0.19h1.5v0.19h-0.56v4.56c0,0.85-0.19,1.48-0.56,1.9c-0.38,0.42-1.04,0.62-1.99,0.62c-0.95,0-1.68-0.2-2.18-0.59
					c-0.5-0.4-0.75-1.08-0.75-2.04v-4.45h-0.56v-0.19h3.23v0.19h-0.67v4.79C186.47,81.65,186.57,82.14,186.79,82.47z"/>
				<path class="st2" d="M192.95,76.04h3.06c0.95,0,1.66,0.13,2.14,0.38c0.47,0.26,0.71,0.69,0.71,1.3c0,0.94-0.56,1.5-1.69,1.68
					v0.02c1.37,0.17,2.05,0.77,2.05,1.78c0,0.74-0.28,1.27-0.84,1.56c-0.56,0.3-1.37,0.45-2.42,0.45h-3.01v-0.19h0.67v-6.78h-0.67
					V76.04z M195.61,76.23v3.16h0.27c0.36,0,0.6-0.11,0.74-0.32c0.14-0.22,0.21-0.54,0.21-0.99v-0.48c0-0.51-0.06-0.86-0.18-1.06
					c-0.12-0.2-0.36-0.3-0.71-0.3H195.61z M195.61,79.58v3.43h0.48c0.38,0,0.64-0.13,0.79-0.39c0.15-0.26,0.23-0.64,0.23-1.15v-0.54
					c0-0.45-0.09-0.79-0.28-1.01c-0.18-0.23-0.51-0.34-0.98-0.34H195.61z"/>
			</g>
			<g>
				<path class="st5" d="M17.46,81.77c0.68,0,1.27-0.36,1.58-0.89c0.02,0.6-0.26,1.48-0.74,2.55h1.92c-0.47-0.99-0.84-1.91-0.8-2.56
					c0.31,0.53,0.9,0.9,1.58,0.9c0.99,0,1.8-0.77,1.8-1.73c0-0.58-0.37-1.08-0.75-1.47c-1.3-1.35-2.2-2.41-2.82-3.48
					c-0.74,1.35-1.82,2.38-2.9,3.48c-0.44,0.44-0.67,0.84-0.67,1.47C15.65,80.99,16.46,81.77,17.46,81.77z"/>
			</g>
			<g>
				<path class="st5" d="M208.73,81.77c0.68,0,1.27-0.36,1.58-0.89c0.02,0.6-0.26,1.48-0.74,2.55h1.92
					c-0.47-0.99-0.84-1.91-0.8-2.56c0.31,0.53,0.9,0.9,1.58,0.9c0.99,0,1.8-0.77,1.8-1.73c0-0.58-0.37-1.08-0.75-1.47
					c-1.3-1.35-2.2-2.41-2.82-3.48c-0.74,1.35-1.82,2.38-2.9,3.48c-0.44,0.44-0.67,0.84-0.67,1.47
					C206.93,80.99,207.74,81.77,208.73,81.77z"/>
			</g>
		</g>
	</g>
</g>
<g id="JACOB">
</g>
<g id="guide" class="st0">
</g>
<g id="outline_guide" class="st0">
	<g class="st1">
		<path class="st13" d="M230,0v130H0V0H230 M243-13h-13H0h-13V0v130v13H0h230h13v-13V0V-13L243-13z"/>
	</g>
</g>
</svg>
