<?xml version="1.0" encoding="utf-8"?>
<!-- Generator: Adobe Illustrator 27.1.1, SVG Export Plug-In . SVG Version: 6.00 Build 0)  -->
<svg version="1.1" xmlns="http://www.w3.org/2000/svg" xmlns:xlink="http://www.w3.org/1999/xlink" x="0px" y="0px"
	 viewBox="0 0 230 130" style="enable-background:new 0 0 230 130;" xml:space="preserve">
<style type="text/css">
	.st0{display:none;}
	.st1{display:inline;}
	.st2{fill:#FFFFFF;}
	.st3{fill:#CC2027;}
	.st4{fill:#BE1E2D;}
	.st5{fill-rule:evenodd;clip-rule:evenodd;fill:#FFFFFF;}
	.st6{display:inline;opacity:0.26;}
	.st7{display:inline;opacity:0.46;fill:#00FF18;}
	.st8{display:inline;opacity:0.67;fill:#FFFFFF;stroke:#000000;stroke-miterlimit:10;}
	.st9{display:inline;opacity:0.25;}
	.st10{fill:#FC0000;}
	.st11{display:inline;opacity:0.54;fill:#FFFFFF;}
	.st12{display:inline;opacity:0.55;fill:#FFFFFF;}
	.st13{fill:#FF0000;}
</style>
<g id="Layer_18" class="st0">
	<rect x="-151.55" y="-43.26" class="st1" width="3500.94" height="279.83"/>
</g>
<g id="Layer_17">
</g>
<g id="GG_POKER">
	<g>
		<g>
			<path class="st2" d="M52.7,65.07c0-1.43,0.14-2.84,0.4-4.2H42.87l-6.23,8.07h9.89c0,0,0.32,0.01,0.65,0.06
				c1.85,0.21,3.3,1.8,3.3,3.69c0,1.89-1.41,3.45-3.3,3.68H41.3c-6.35,0-11.52-4.99-11.52-11.34c0-0.84,0.09-1.65,0.27-2.46
				c0.12-0.57,0.62-2.39,1.61-3.94c2.01-3.15,5.6-5.18,9.6-5.18h6.62c0,0,0.01-0.01,0.01-0.01l4.72,0l6.25-8.24h-2.6H41.01H40.9
				c-10.88,0-19.73,8.88-19.73,19.81c0,10.92,8.86,19.81,19.74,19.81h0.09h5.65h7.65c2.28,0,4.13-1.81,4.13-4.09V80
				C54.87,76.01,52.7,70.79,52.7,65.07z"/>
			<path class="st3" d="M88.07,53.41l6.23-8.21H75.4H75.3c-6.57,0-12.4,3.24-15.98,8.21H88.07z"/>
			<path class="st2" d="M88.7,60.87H76.9l-6.23,8.07h10.25c0,0,0.32,0.01,0.65,0.06c1.85,0.21,3.3,1.8,3.3,3.69
				c0,1.89-1.41,3.45-3.3,3.68H75.7c-6.35,0-11.52-4.99-11.52-11.34c0-0.84,0.09-1.65,0.27-2.46c0.07-0.31,0.25-1.02,0.57-1.84
				h-8.98c-0.3,1.38-0.46,2.81-0.46,4.27c0,10.92,8.86,19.81,19.74,19.81h0.09h5.65h7.65c2.28,0,4.13-1.81,4.13-4.09V65.03
				C92.83,62.76,90.98,60.87,88.7,60.87z"/>
			<path class="st2" d="M163.31,73.45c0,5.2,4.23,9.45,9.43,9.45h11.33v-4.35h-11.33c-2.07,0-3.85-1.22-4.66-2.99h15.99v-4.35
				h-15.94c0.83-1.63,2.58-2.86,4.61-2.86h11.33V64h-11.33C167.54,64,163.31,68.25,163.31,73.45z"/>
			<path class="st2" d="M132.2,63.38c-5.78,0-10.46,4.68-10.46,10.46c0,5.78,4.68,10.46,10.46,10.46c5.78,0,10.46-4.68,10.46-10.46
				C142.66,68.06,137.98,63.38,132.2,63.38z M132.2,80.56c-3.7,0-6.72-3.01-6.72-6.72s3.01-6.72,6.72-6.72s6.72,3.01,6.72,6.72
				S135.91,80.56,132.2,80.56z"/>
			<path class="st2" d="M207.84,70.91c0-3.77-3.03-6.91-6.76-6.91h-14.69v18.91h3.94v-15.1h10.75c1.61,0,2.96,1.49,2.96,3.2
				c0,1.7-1.37,3.2-2.99,3.2h-6.51c-0.27,0-0.58,0.12-0.82,0.3c-0.36,0.26-0.59,0.7-0.59,1.17c0,0.48,0.18,0.91,0.59,1.17v0.01
				l8.7,6.04h6.39l-7.5-5.09C205.07,77.81,207.84,74.69,207.84,70.91z"/>
			<path class="st2" d="M113.42,77.86c3.74,0,6.53-3.15,6.53-6.93c0-3.77-3.02-6.94-6.75-6.94H98.51v18.91h3.94v-15.1h10.75
				c1.61,0,2.96,1.49,2.96,3.2c0,1.7-1.37,3.2-2.99,3.2h-8.82v3.67L113.42,77.86z"/>
			<g>
				<rect x="144.76" y="64" class="st2" width="3.94" height="18.91"/>
			</g>
			<g>
				<path class="st2" d="M165.57,82.77h-5.85l-9.24-7.56c-0.5-0.38-0.83-1.06-0.83-1.84c0,0-0.03-1.1,0.85-1.91l9.13-7.46h5.93
					l-10.51,8.64c-0.19,0.19-0.3,0.45-0.3,0.74c0,0.28,0.12,0.53,0.3,0.72L165.57,82.77z"/>
			</g>
		</g>
	</g>
</g>
<g id="FREAM_ROOM">
</g>
<g id="JACOB">
</g>
<g id="guide" class="st0">
</g>
<g id="outline_guide" class="st0">
	<g class="st1">
		<path class="st13" d="M230,0v130H0V0H230 M243-13h-13H0h-13V0v130v13H0h230h13v-13V0V-13L243-13z"/>
	</g>
</g>
</svg>
