<?xml version="1.0" encoding="utf-8"?>
<!-- Generator: Adobe Illustrator 27.1.1, SVG Export Plug-In . SVG Version: 6.00 Build 0)  -->
<svg version="1.1" xmlns="http://www.w3.org/2000/svg" xmlns:xlink="http://www.w3.org/1999/xlink" x="0px" y="0px"
	 viewBox="0 0 230 130" style="enable-background:new 0 0 230 130;" xml:space="preserve">
<style type="text/css">
	.st0{display:none;}
	.st1{display:inline;}
	.st2{fill:#FFFFFF;}
	.st3{fill:#CC2027;}
	.st4{fill:#BE1E2D;}
	.st5{fill-rule:evenodd;clip-rule:evenodd;fill:#FFFFFF;}
	.st6{display:inline;opacity:0.26;}
	.st7{display:inline;opacity:0.46;fill:#00FF18;}
	.st8{display:inline;opacity:0.67;fill:#FFFFFF;stroke:#000000;stroke-miterlimit:10;}
	.st9{display:inline;opacity:0.25;}
	.st10{fill:#FC0000;}
	.st11{display:inline;opacity:0.54;fill:#FFFFFF;}
	.st12{display:inline;opacity:0.55;fill:#FFFFFF;}
	.st13{fill:#FF0000;}
</style>
<g id="Layer_18" class="st0">
	<rect x="-1411.55" y="-43.26" class="st1" width="3500.94" height="279.83"/>
</g>
<g id="Layer_17">
</g>
<g id="GG_POKER">
</g>
<g id="FREAM_ROOM">
</g>
<g id="JACOB">
	<g>
		<g>
			<g>
				<path class="st2" d="M149.17,66.26L149.17,66.26L149.17,66.26l-0.08-0.04c-1.18-0.43-2.47-0.67-3.85-0.67l-0.71,0.04h-0.2h-0.04
					l0,0c-6.51,0.51-9.57,6.04-9.65,11.03c0,0.04,0,0.08,0,0.08c0,0.04,0,0.12,0,0.12c0,3.37-0.82,5.89-2.51,7.69l-0.27,0.27
					c-2.2,2.08-5.02,2.16-5.85,2.16l-0.51-0.04c0,0-0.75-0.04-1.77-0.31l-0.24-0.08c-0.04,0-0.12-0.04-0.12-0.04
					c-0.98-0.31-1.84-0.75-2.59-1.26l-0.12-0.12l-0.55-0.43c-0.04-0.04-0.12-0.12-0.12-0.12c-1.45-1.29-2.39-2.9-2.86-4.95
					c-0.27-1.1-0.39-2.24-0.35-3.37c0-3.61,1.14-6.4,3.3-8.12c2.32-1.84,5.18-2.04,6.95-1.65c0.04,0,2.2,0.35,3.18,2.32
					c0.2,0.27,0.27,0.59,0.31,0.82c0,0.12,0.04,0.2,0.04,0.27c0,0.31-0.08,0.59-0.16,0.78l-0.08,0.31v0.08v0.08l0.04,0.67
					c0.12,0.59,0.67,1.02,1.33,1.02c0.27,0,0.55-0.04,0.82-0.12c0.47-0.2,0.78-0.47,0.9-0.9c0.27-1.06-0.75-2.55-1.22-3.18
					c-1.73-2.04-4.28-3.14-7.18-3.14c-3.34,0-6.63,1.49-8.79,3.96V53.66l0.04-20.68c0-3.77,0-8.08,6.67-10.36h-0.08
					c0.04,0,0.04,0,0.08-0.04h-9.1l-9.61-0.04c0.04,0,0.04,0,0.08,0.04h-0.08c1.69,0.59,2.94,1.29,3.88,2.08l0.04,0.04
					c0.08,0.08,0.2,0.16,0.27,0.24c2.47,2.32,2.47,5.3,2.47,8v36.53v2.04c-0.08-0.08-0.43-0.43-0.98-0.98
					c-3.18-3.22-13.22-13.38-17.74-18.6l-1.37-1.65c-0.08-0.08-6.24-6.91-1.26-11.85c2.43-2.43,6.32-3.49,9.97-2.71
					c3.81,0.82,6.71,3.41,8.2,7.26v-0.08c0,0.04,0,0.04,0.04,0.04v-2.9l0.04-3.06c-0.08-0.08-8.4-5.38-18.01-0.71
					c-0.08,0.04-8.67,4.43-5.26,12.52c0.86,2.2,2.2,4.08,3.18,5.22c0,0,0,0,0.27,0.31c0.04,0.04,0.04,0.04,0.08,0.08
					c0,0-0.04,0.04-0.08,0.04c-0.39,0.2-1.96,1.06-3.53,2.16c-3.85,2.35-10.32,7.3-10.32,14.01c0,10.12,8.87,17.23,21.54,17.23
					l2-0.08l0.43-0.04l1.29-0.12c2.71-0.27,5.22-0.9,7.42-1.8l0.27-0.12c0.04,0,0.78-0.35,0.78-0.35l1.06-0.55l0.27-0.16
					c1.73-0.98,3.14-2.04,4.28-3.18c0.04,0.08,0.12,0.16,0.16,0.24c1.22,1.61,4.94,5.77,10.83,6.12h0.12h0.67
					c4.4,0,7.1-2.16,8.59-3.96c0.82-1.06,1.37-2.12,1.69-2.79c0.12,0.31,0.24,0.63,0.39,0.94c0.98,2.2,2.59,3.88,4.71,4.87
					c1.45,0.67,3.02,1.02,4.75,1.02c0.67,0,1.33-0.08,2.08-0.2h0.08c5.49-0.94,7.89-5.65,8.24-9.69
					C156.2,73.56,154.31,68.18,149.17,66.26 M122.8,22.66h0.08c-2.16,0.75-3.61,1.69-4.59,2.79
					C119.23,24.35,120.69,23.41,122.8,22.66 M107.58,42.91v0.08c-0.24-0.63-0.51-1.26-0.82-1.8
					C107.07,41.73,107.34,42.28,107.58,42.91 M85.68,57.11c-2.47,1.96-5.81,5.42-6.63,10.2C79.88,62.53,83.21,59.08,85.68,57.11
					 M102.6,86.19c-7.46,1.77-17.62-1.14-21.7-9.06c-1.41-2.75-2-5.26-2-7.53c0-9.26,9.54-14.36,9.65-14.4
					c0,0.04,22.13,22.76,22.13,22.76C110.64,81.91,107.62,85.01,102.6,86.19 M110.84,71.55C110.84,71.55,110.8,71.51,110.84,71.55
					v-0.86V71.55z M104.21,22.62c-0.04,0-0.04,0-0.08-0.04l9.1,0.04H104.21z M113.27,81.56c0.04-0.04,0.04-0.04,0.08-0.08l0,0
					C113.35,81.52,113.31,81.56,113.27,81.56 M116.17,69.51L116.17,69.51c0.35-0.39,0.71-0.75,1.06-1.06
					C116.88,68.77,116.53,69.12,116.17,69.51 M135.16,81.52c0.08-0.16,0.16-0.31,0.2-0.43c0,0,0,0,0,0.04
					C135.32,81.25,135.24,81.4,135.16,81.52 M145.13,87.25c-4.55,0-6.95-5.02-6.95-10.01c0-7.53,3.77-10.99,7.3-10.99
					c2.32,0,7.14,2.63,7.14,10.71C152.63,81.95,150,87.25,145.13,87.25"/>
			</g>
			<g>
				<path class="st2" d="M79.72,95.06l-3.85-0.04l-0.04,0.2c1.1,0.04,1.37,0.24,1.37,1.33V104c0,1.37-0.51,1.45-0.63,1.45
					c-0.27,0-0.43-0.16-0.51-0.47c-0.12-0.55-0.39-0.82-0.82-0.82c-0.31,0-0.67,0.27-0.67,0.75c0,0.43,0.31,0.94,1.18,0.94
					c1.8,0,2.75-1.57,2.75-4.59v-4.98l0,0c0-0.2,0-0.31,0.04-0.47c0.12-0.43,0.39-0.59,1.18-0.63L79.72,95.06L79.72,95.06z
					 M87.92,104.04l-3.65-9.26c0,0,0,0-0.04,0.04l0,0c-0.04,0.04-0.08,0.12-0.12,0.2c-0.31,0.39-0.63,0.71-0.94,0.9l0,0
					c0,0.04,0.24,0.47,0.24,0.47l-2.98,7.89c-0.31,0.86-0.63,1.18-1.18,1.29l-0.04,0.2l2.67,0.04l0.04-0.2
					c-0.04-0.04-0.35-0.08-0.35-0.08c-0.39-0.04-0.86-0.16-0.86-0.67c0-0.24,0.16-0.78,0.43-1.53l0.63-1.69h3.73l0,0
					c0,0.04,0.63,1.69,0.63,1.69c0.31,0.75,0.47,1.29,0.47,1.49c0,0.59-0.71,0.71-1.29,0.71l-0.04,0.2v0.04h3.92l0.04-0.2
					C88.43,105.42,88.27,104.95,87.92,104.04 M84.27,94.82L84.27,94.82c0,0,0.08,0.2,0.2,0.51L84.27,94.82
					C84.27,94.86,84.27,94.86,84.27,94.82 M81.88,101.34L81.88,101.34h0.9H81.88z M84.47,101.34c-1.02,0-2.51-0.04-2.55-0.04
					l0.04-0.12c0.27-0.67,1.57-4.16,1.69-4.47c0.04,0.12,1.77,4.51,1.8,4.59h-0.98V101.34z M85.45,101.34c0-0.04,0-0.08-0.04-0.12
					L85.45,101.34L85.45,101.34z M94.24,105.69c-2.43,0-3.88-2.59-3.88-5.1c0-2.63,1.26-5.46,3.96-5.46c2.35,0,3.53,1.92,3.81,3.73
					l0.16,0.04l0.04-3.49l-0.16-0.04c-0.04,0-0.51,0.75-0.51,0.75c-0.04,0-0.04-0.04-0.08-0.04c-1.02-0.82-2.04-1.18-3.26-1.18
					c-3.14,0-5.42,2.35-5.42,5.61c0,3.37,2,5.49,5.26,5.49c1.33,0,2.51-0.43,3.57-1.26l0,0c0,0.08,0.39,0.86,0.39,0.86l0,0h0.16
					l0.04-3.37l-0.16-0.04C97.73,104.4,96.28,105.69,94.24,105.69 M97.61,104.83c0.04-0.04,0.12-0.08,0.16-0.12l0,0
					C97.73,104.75,97.65,104.79,97.61,104.83 M104.95,94.86c-1.8,0-5.22,1.18-5.22,5.69c0,2,1.1,5.42,5.14,5.42
					c4.28,0,5.42-3.45,5.42-5.46C110.29,96.63,107.5,94.86,104.95,94.86 M104.87,105.73c-2.43,0-3.73-2.55-3.73-5.1
					c0-3.81,1.96-5.49,3.92-5.49c1.26,0,3.81,1.29,3.81,5.38C108.87,103.02,107.46,105.73,104.87,105.73 M116.13,100.08
					c1.45-0.31,2.28-1.26,2.28-2.59c0-0.82-0.47-1.69-1.18-2c-0.78-0.39-1.57-0.47-2.59-0.47h-0.35l-3.14,0.04l-0.04,0.2
					c0.9,0.08,1.14,0.16,1.14,0.86v8.67c0,0.59-0.39,0.71-1.14,0.75l-0.04,0.2c0.04,0.04,1.69,0.04,1.69,0.04l1.69,0.04
					c2.9,0,4.51-1.06,4.51-2.98C119.04,101.34,117.9,100.24,116.13,100.08 M113.58,95.22l0.12,0.04c0.67,0,1.45,0,1.96,0.2
					c0.86,0.31,1.37,1.1,1.37,2.2c0,2.2-1.84,2.43-2.67,2.43h-0.82L113.58,95.22z M114.92,105.57c-0.82,0-1.33-0.16-1.33-1.02v-4.2
					l0.71,0.04c1.73,0,3.3,0.2,3.3,2.51C117.59,104.63,116.64,105.57,114.92,105.57 M139.17,105.69c-2.43,0-3.88-2.59-3.88-5.1
					c0-2.63,1.26-5.46,3.96-5.46c2.35,0,3.53,1.92,3.81,3.73l0.16,0.04l0.04-3.49l-0.16-0.04c-0.04,0-0.51,0.75-0.51,0.75
					c-0.04,0-0.04-0.04-0.08-0.04c-1.02-0.82-2.04-1.18-3.26-1.18c-3.14,0-5.42,2.35-5.42,5.61c0,2.71,1.29,4.63,3.53,5.26
					c-0.71,0.9-1.49,1.29-2.47,1.29c-1.73,0-3.92-1.88-5.96-4.04c0.51-0.67,1.26-1.77,1.26-1.77c0.51-0.71,0.94-1.06,1.77-1.18
					l0.04-0.16l-2.63-0.04l-0.04,0.16c0.04,0.04,0.12,0.04,0.12,0.04c0.24,0,0.55,0.04,0.67,0.2l0.08,0.24
					c-0.04,0.27-0.9,1.53-1.41,2.32c-1.14-1.22-2.2-2.51-3.14-3.61c0.16-0.08,0.82-0.47,0.82-0.47l0.63-0.35
					c0.78-0.55,1.1-1.02,1.1-1.69c0-1.18-1.26-1.88-2.16-1.88c-0.59,0-1.18,0.2-1.69,0.59c-0.55,0.43-0.86,1.1-0.86,1.92
					c0,0.75,0.31,1.65,0.78,2.35c-1.26,0.67-2.43,1.65-2.43,3.45c0,1.65,1.22,2.9,2.79,2.9c1.49,0,2.35-0.78,3.1-1.65l0.24-0.31
					c0,0.04,0.04,0.04,0.08,0.08c2.67,2.75,4.79,3.3,6.16,3.3c1.41,0,2.39-0.51,3.34-1.77c0.47,0.12,0.98,0.2,1.53,0.2
					c1.33,0,2.55-0.43,3.57-1.26l0,0c0,0.08,0.39,0.86,0.39,0.86l0,0h0.16l0.04-3.37l-0.16-0.04
					C142.66,104.4,141.21,105.69,139.17,105.69 M125.59,99.14L125.59,99.14c0.08-0.04,0.16-0.08,0.24-0.16
					C125.75,99.06,125.67,99.1,125.59,99.14 M124.22,96.63c0-0.63,0.2-1.02,0.71-1.26c0.27-0.12,0.63-0.16,1.06-0.08
					c0.82,0.16,1.41,0.86,1.41,1.73c0,0.75-1.1,1.65-1.81,2.08C124.77,98.16,124.22,97.49,124.22,96.63 M125.43,105.03
					c-1.41,0-2.39-1.18-2.39-2.86c0-0.94,0.47-1.69,1.41-2.28c1.02,1.37,2.2,2.79,3.41,4.04
					C127.16,104.63,126.45,105.03,125.43,105.03 M137.32,106.08c0.08-0.08,0.16-0.2,0.24-0.31l0,0
					C137.52,105.89,137.44,106.01,137.32,106.08 M142.54,104.83c0.04-0.04,0.12-0.08,0.16-0.12l0,0
					C142.66,104.75,142.58,104.79,142.54,104.83 M149.88,94.86c-1.8,0-5.22,1.18-5.22,5.69c0,2,1.1,5.42,5.14,5.42
					c4.28,0,5.42-3.45,5.42-5.46C155.22,96.63,152.43,94.86,149.88,94.86 M149.8,105.73c-2.43,0-3.73-2.55-3.73-5.1
					c0-3.81,1.96-5.49,3.92-5.49c1.26,0,3.81,1.29,3.81,5.38C153.8,103.02,152.39,105.73,149.8,105.73"/>
			</g>
		</g>
	</g>
</g>
<g id="guide" class="st0">
</g>
<g id="outline_guide" class="st0">
	<g class="st1">
		<path class="st13" d="M230,0v130H0V0H230 M243-13h-13H0h-13V0v130v13H0h230h13v-13V0V-13L243-13z"/>
	</g>
</g>
</svg>
