<?xml version="1.0" encoding="utf-8"?>
<!-- Generator: Adobe Illustrator 27.1.1, SVG Export Plug-In . SVG Version: 6.00 Build 0)  -->
<svg version="1.1" xmlns="http://www.w3.org/2000/svg" xmlns:xlink="http://www.w3.org/1999/xlink" x="0px" y="0px"
	 viewBox="0 0 230 130" style="enable-background:new 0 0 230 130;" xml:space="preserve">
<style type="text/css">
	.st0{display:none;}
	.st1{display:inline;}
	.st2{fill:#FFFFFF;}
	.st3{fill:#CC2027;}
	.st4{fill:#BE1E2D;}
	.st5{fill-rule:evenodd;clip-rule:evenodd;fill:#FFFFFF;}
	.st6{display:inline;opacity:0.26;}
	.st7{display:inline;opacity:0.46;fill:#00FF18;}
	.st8{display:inline;opacity:0.67;fill:#FFFFFF;stroke:#000000;stroke-miterlimit:10;}
	.st9{display:inline;opacity:0.25;}
	.st10{fill:#FC0000;}
	.st11{display:inline;opacity:0.54;fill:#FFFFFF;}
	.st12{display:inline;opacity:0.55;fill:#FFFFFF;}
	.st13{fill:#FF0000;}
</style>
<g id="Layer_18" class="st0">
	<rect x="-2041.55" y="-43.26" class="st1" width="3500.94" height="279.83"/>
</g>
<g id="Layer_17">
	<g>
		<g>
			<polygon class="st2" points="58.71,46.69 75.74,56.09 92.77,46.69 			"/>
			<polygon class="st2" points="74.71,83.31 74.71,58.13 57.08,48.41 			"/>
			<polygon class="st2" points="76.78,83.31 76.78,58.13 94.4,48.41 			"/>
			<g>
				<path class="st2" d="M101.11,57.34c-0.57,0-0.85,0.15-0.85,0.44c0,0.28,0.28,0.42,0.85,0.42h4.27c2.28,0,3.42,1.14,3.42,3.42
					c0,2.85-1.42,4.27-4.27,4.27h-7.69v-3.42h7.69c0.57,0,0.85-0.13,0.85-0.39c0-0.31-0.29-0.46-0.85-0.46h-3.42
					c-2.85,0-4.27-1.14-4.27-3.42c0-2.85,1.42-4.27,4.27-4.27h7.69v3.42H101.11z"/>
				<path class="st2" d="M109.66,53.92h11.97v3.42h-11.97V53.92z M109.66,58.2h11.97v3.42h-11.97V58.2z M109.66,65.89v-3.42h11.97
					v3.42H109.66z"/>
				<path class="st2" d="M122.48,59.91c0-3.99,1.99-5.98,5.98-5.98c3.99,0,5.98,1.84,5.98,5.51h-3.42c0-1.39-0.85-2.09-2.56-2.09
					c-1.71,0-2.56,0.85-2.56,2.56s0.85,2.56,2.56,2.56c1.71,0,2.56-0.71,2.56-2.12h3.42c0,3.69-1.99,5.54-5.98,5.54
					C124.48,65.89,122.48,63.9,122.48,59.91z"/>
				<path class="st2" d="M140.43,61.62h-1.71v4.27h-3.42V53.92H143c2.85,0,4.27,1.42,4.27,4.27c0,1.57-0.68,2.6-2.03,3.09l7.16,7.16
					h-5.13L140.43,61.62z M138.72,57.34v0.85H143c0.57,0,0.85-0.14,0.85-0.42c0-0.29-0.29-0.44-0.85-0.44H138.72z"/>
				<path class="st2" d="M148.13,53.92h11.97v3.42h-11.97V53.92z M148.13,58.2h11.97v3.42h-11.97V58.2z M148.13,65.89v-3.42h11.97
					v3.42H148.13z"/>
				<path class="st2" d="M160.95,53.92h11.97v3.42h-4.27v8.55h-3.42v-8.55h-4.27V53.92z"/>
				<path class="st2" d="M135.3,69.47h3.42v8.55h8.55v3.42H135.3V69.47z"/>
				<path class="st2" d="M148.13,81.44v-5.98c0-3.99,1.99-5.98,5.98-5.98c3.99,0,5.98,1.99,5.98,5.98v5.98h-3.42v-2.56h-5.13v2.56
					H148.13z M156.68,75.46c0-1.71-0.85-2.56-2.56-2.56s-2.56,0.85-2.56,2.56H156.68z"/>
				<path class="st2" d="M160.95,81.44V69.47h7.69c2.85,0,4.27,1.42,4.27,4.27c0,1.14-0.57,1.71-1.71,1.71
					c1.14,0,1.71,0.57,1.71,1.71c0,2.85-1.42,4.27-4.27,4.27H160.95z M168.65,73.75c0.57,0,0.85-0.14,0.85-0.43
					c0-0.28-0.29-0.43-0.85-0.43h-4.27v0.85H168.65z M168.65,78.02c0.57,0,0.85-0.14,0.85-0.43c0-0.28-0.29-0.43-0.85-0.43h-4.27
					v0.85H168.65z"/>
			</g>
		</g>
	</g>
</g>
<g id="GG_POKER">
</g>
<g id="FREAM_ROOM">
</g>
<g id="JACOB">
</g>
<g id="guide" class="st0">
</g>
<g id="outline_guide" class="st0">
	<g class="st1">
		<path class="st13" d="M230,0v130H0V0H230 M243-13h-13H0h-13V0v130v13H0h230h13v-13V0V-13L243-13z"/>
	</g>
</g>
</svg>
