<?xml version="1.0" encoding="UTF-8"?>
<svg id="Layer_1" data-name="Layer 1" xmlns="http://www.w3.org/2000/svg" viewBox="0 0 1080 360">
  <defs>
    <style>
      .cls-1 {
        fill: #fff;
      }
    </style>
  </defs>
  <polygon class="cls-1" points="27.83 13.38 182.76 98.88 337.7 13.38 27.83 13.38"/>
  <polygon class="cls-1" points="173.34 346.62 173.34 117.47 12.96 29.05 173.34 346.62"/>
  <polygon class="cls-1" points="192.19 346.62 192.19 117.47 352.57 29.05 192.19 346.62"/>
  <g>
    <path class="cls-1" d="m413.59,110.31c-5.19,0-7.78,1.32-7.78,3.97s2.59,3.81,7.78,3.81h38.9c20.74,0,31.12,10.37,31.12,31.12,0,25.93-12.97,38.9-38.9,38.9h-70.01v-31.12h70.01c5.19,0,7.78-1.19,7.78-3.58,0-2.8-2.59-4.2-7.78-4.2h-31.12c-25.93,0-38.9-10.37-38.9-31.12,0-25.93,12.96-38.9,38.9-38.9h70.01v31.12h-70.01Z"/>
    <path class="cls-1" d="m491.38,79.19h108.91v31.12h-108.91v-31.12Zm0,38.9h108.91v31.12h-108.91v-31.12Zm0,70.01v-31.12h108.91v31.12h-108.91Z"/>
    <path class="cls-1" d="m608.07,133.64c0-36.3,18.15-54.45,54.45-54.45s54.45,16.7,54.45,50.1h-31.12c0-12.65-7.78-18.98-23.34-18.98s-23.34,7.78-23.34,23.34,7.78,23.34,23.34,23.34,23.34-6.43,23.34-19.29h31.12c0,33.61-18.15,50.41-54.45,50.41s-54.45-18.15-54.45-54.45Z"/>
    <path class="cls-1" d="m771.43,149.2h-15.56v38.9h-31.12v-108.91h70.01c25.93,0,38.9,12.97,38.9,38.9,0,14.31-6.17,23.7-18.51,28.16l65.19,65.19h-46.68l-62.23-62.23Zm-15.56-38.9v7.78h38.9c5.19,0,7.78-1.27,7.78-3.81s-2.59-3.97-7.78-3.97h-38.9Z"/>
    <path class="cls-1" d="m841.45,79.19h108.91v31.12h-108.91v-31.12Zm0,38.9h108.91v31.12h-108.91v-31.12Zm0,70.01v-31.12h108.91v31.12h-108.91Z"/>
    <path class="cls-1" d="m958.13,79.19h108.91v31.12h-38.9v77.79h-31.12v-77.79h-38.9v-31.12Z"/>
    <path class="cls-1" d="m724.76,220.72h31.12v77.79h77.79v31.12h-108.91v-108.91Z"/>
    <path class="cls-1" d="m841.45,329.63v-54.45c0-36.3,18.15-54.45,54.45-54.45s54.45,18.15,54.45,54.45v54.45h-31.12v-23.34h-46.68v23.34h-31.12Zm77.79-54.45c0-15.56-7.78-23.34-23.34-23.34s-23.34,7.78-23.34,23.34h46.68Z"/>
    <path class="cls-1" d="m958.13,329.63v-108.91h70.01c25.93,0,38.9,12.97,38.9,38.9,0,10.37-5.19,15.56-15.56,15.56,10.37,0,15.56,5.19,15.56,15.56,0,25.93-12.97,38.9-38.9,38.9h-70.01Zm70.01-70.01c5.19,0,7.78-1.3,7.78-3.89s-2.59-3.89-7.78-3.89h-38.9v7.78h38.9Zm0,38.9c5.19,0,7.78-1.3,7.78-3.89s-2.59-3.89-7.78-3.89h-38.9v7.78h38.9Z"/>
  </g>
</svg>