<?xml version="1.0" encoding="UTF-8"?>
<svg id="Layer_1" data-name="Layer 1" xmlns="http://www.w3.org/2000/svg" viewBox="0 0 1080 700">
  <defs>
    <style>
      .cls-1 {
        fill: #fff;
      }
    </style>
  </defs>
  <g>
    <path class="cls-1" d="m27.14,660.39c-1.41-.7-1.51-1.09-1.51-3.83,0-5.03.4-9.06.5-10.68.11-1.11.31-1.61.81-1.61.61,0,.71.3.71,1.11,0,.91,0,2.32.3,3.73,1.51,7.45,8.16,10.29,14.92,10.29,9.68,0,14.41-6.96,14.41-13.41,0-6.95-2.92-10.99-11.59-18.15l-4.53-3.73c-10.69-8.77-13.11-15.02-13.11-21.87,0-10.78,8.06-18.15,20.87-18.15,3.93,0,6.85.41,9.37,1.02,1.91.4,2.72.5,3.53.5s1,.2,1,.71-.4,3.83-.4,10.68c0,1.61-.2,2.31-.71,2.31-.6,0-.7-.48-.8-1.3-.1-1.21-.71-3.92-1.31-5.04-.61-1.1-3.32-5.34-12.6-5.34-6.96,0-12.4,4.33-12.4,11.68,0,5.76,2.62,9.39,12.29,16.95l2.82,2.22c11.89,9.37,14.71,15.62,14.71,23.68,0,4.13-1.61,11.79-8.56,16.73-4.33,3.03-9.78,4.23-15.22,4.23-4.74,0-9.37-.7-13.51-2.73"/>
    <path class="cls-1" d="m136.93,636.81c0,8.27.1,15.02.5,18.54.31,2.53.51,4.14,3.23,4.55,1.21.2,3.23.4,3.92.4.61,0,.81.41.81.71,0,.41-.5.71-1.51.71-4.84,0-10.48-.3-10.99-.3-.41,0-6.15.3-8.77.3-1,0-1.41-.21-1.41-.71,0-.3.21-.71.7-.71.81,0,1.82-.2,2.63-.4,1.82-.41,2.12-2.12,2.41-4.65.41-3.52.41-9.97.41-18.23v-8.57c0-.41-.2-.5-.5-.5h-36.99c-.3,0-.5.09-.5.5v8.57c0,8.26,0,14.81.41,18.34.3,2.53.6,4.14,3.22,4.55,1.31.2,3.23.4,4.03.4.51,0,.71.41.71.71,0,.41-.41.71-1.41.71-4.94,0-10.58-.3-10.99-.3-.5,0-6.15.3-8.87.3-.91,0-1.41-.21-1.41-.71,0-.3.2-.71.7-.71.81,0,1.91-.2,2.73-.4,1.71-.41,1.91-2.02,2.31-4.55.51-3.53.51-10.27.51-18.54v-15.11c0-13.31,0-15.72-.2-18.45-.2-2.92-.71-4.33-3.63-4.73-.71-.1-2.21-.2-3.02-.2-.3,0-.71-.41-.71-.71,0-.49.41-.7,1.41-.7,4.03,0,9.68.21,10.18.21.41,0,6.05-.21,8.77-.21,1.01,0,1.41.21,1.41.7,0,.3-.41.71-.71.71-.6,0-1.21,0-2.22.2-2.41.5-2.92,1.72-3.12,4.73-.1,2.73-.1,5.34-.1,18.65v1.82c0,.5.2.5.5.5h36.99c.3,0,.5,0,.5-.5v-1.82c0-13.31-.1-15.92-.2-18.65-.2-2.92-.6-4.33-3.53-4.73-.7-.1-2.21-.2-3.03-.2-.4,0-.7-.41-.7-.71,0-.49.41-.7,1.42-.7,3.92,0,9.66.21,10.07.21.5,0,6.14-.21,8.77-.21,1.01,0,1.51.21,1.51.7,0,.3-.41.71-.81.71-.6,0-1.11,0-2.22.2-2.32.5-2.82,1.72-3.01,4.73-.21,2.73-.21,5.14-.21,18.45v15.11Z"/>
    <path class="cls-1" d="m189.52,598.61c1.11-2.82,1.5-3.32,2.11-3.32.91,0,1.21,1.21,2.12,3.12,1.6,3.62,15.82,39.01,21.26,52.01,3.22,7.66,5.64,8.76,7.56,9.38,1.31.4,2.62.5,3.53.5.5,0,1.11.2,1.11.71s-1.01.71-2.02.71c-1.31,0-7.86,0-14.02-.21-1.71-.1-3.12-.1-3.12-.6,0-.41.2-.41.6-.6.5-.2,1.41-.9.81-2.32l-7.96-19.65c-.2-.41-.31-.51-.81-.51h-20.46c-.4,0-.7.21-.91.71l-5.03,13.7c-.81,2.12-1.32,4.23-1.32,5.74,0,1.72,1.51,2.32,3.02,2.32h.81c.71,0,.91.31.91.71,0,.5-.5.71-1.31.71-2.12,0-6.96-.31-7.96-.31-.91,0-5.34.31-8.96.31-1.11,0-1.72-.21-1.72-.71,0-.4.41-.71.81-.71.6,0,1.91-.1,2.61-.2,4.03-.51,5.75-3.54,7.47-7.87l20.86-53.62Zm9.87,35.68c.41,0,.41-.2.31-.6l-8.77-23.48c-.5-1.31-1.01-1.31-1.51,0l-8.27,23.48c-.1.41,0,.6.3.6h17.94Z"/>
    <path class="cls-1" d="m317.08,650.62c.3,3.03.91,7.67,4.53,8.88,2.53.8,4.83.8,5.74.8.41,0,.71.2.71.6,0,.5-.81.81-1.82.81-2,0-11.88-.21-15.11-.5-2.12-.21-2.52-.51-2.52-.91,0-.3.2-.6.61-.71.5-.09.6-1.41.4-3.03l-4.23-43.33h-.2l-21.36,43.74c-1.82,3.73-2.32,4.53-3.13,4.53s-1.3-.8-3.02-3.92c-2.32-4.24-8.16-15.22-10.38-19.85-2.62-5.44-9.78-19.86-11.29-23.39h-.4l-3.44,38.71c-.09,1.31-.09,2.91-.09,4.33,0,1.31.81,2.12,2.12,2.42,1.51.4,2.82.5,3.42.5.31,0,.7.31.7.6,0,.6-.6.81-1.6.81-3.33,0-7.56-.31-8.27-.31-.81,0-5.04.31-7.46.31-.91,0-1.52-.21-1.52-.81,0-.29.42-.6.91-.6.7,0,1.31-.1,2.63-.3,2.91-.5,3.02-3.63,3.42-6.86l6.45-55.93c.1-.91.5-1.51,1.01-1.51.6,0,1.31.3,1.81,1.3l26.81,53.22,25.8-53.12c.41-.8.81-1.41,1.41-1.41s1.11.71,1.32,2.31l6.05,52.61Z"/>
    <path class="cls-1" d="m348.8,621.7c0-13.31,0-15.72-.2-18.45-.2-2.92-.71-4.54-3.64-4.93-.71-.1-2.22-.21-3.02-.21-.3,0-.7-.2-.7-.5,0-.51.4-.7,1.41-.7,4.03,0,9.78.19,10.28.19,2.11,0,6.24-.19,10.37-.19,14.82,0,18.65,8.55,18.65,13.09,0,6.75-4.44,10.98-8.98,15.03,6.76,2.01,15.62,8.16,15.62,17.83s-7.15,19.06-22.28,19.06c-1.6,0-4.83-.11-7.65-.31-2.82-.1-5.34-.21-5.74-.21-.2,0-1.82.1-3.63.1-1.82.1-3.93.21-5.34.21-.91,0-1.41-.21-1.41-.71,0-.3.2-.51.71-.51.81,0,1.91-.3,2.72-.4,1.71-.3,1.91-2.22,2.32-4.74.5-3.53.5-10.27.5-18.54v-15.11Zm7.66,1.8c0,.61.2.81.61.91.5.1,2.11.41,5.44.41,4.93,0,6.85-.21,8.67-2.23,1.91-2.11,3.43-5.04,3.43-9.16,0-6.56-3.63-13.82-12.5-13.82-1.01,0-3.13.11-4.54.41-.81.21-1.11.41-1.11.92v22.56Zm0,9.49c0,6.65,0,16.92.1,18.24.31,4.12.31,5.13,3.03,6.45,2.41,1.1,6.15,1.21,7.76,1.21,5.85,0,13-2.22,13-13.2,0-3.83-1.51-11.2-8.47-15.62-3.02-1.91-5.85-1.82-7.96-2.23-1.11-.21-5.55-.21-6.96-.21-.3,0-.5.21-.5.61v4.74Z"/>
    <path class="cls-1" d="m428.66,598.61c1.11-2.82,1.5-3.32,2.11-3.32.91,0,1.22,1.21,2.12,3.12,1.61,3.62,15.82,39.01,21.26,52.01,3.23,7.66,5.65,8.76,7.56,9.38,1.31.4,2.63.5,3.53.5.5,0,.66.2.66.71s-.55.71-1.56.71c-1.32,0-7.87,0-14.02-.21-1.72-.1-3.12-.1-3.12-.6,0-.41.2-.41.6-.6.5-.2,1.41-.9.8-2.32l-7.96-19.65c-.19-.41-.3-.51-.81-.51h-20.46c-.4,0-.7.21-.9.71l-5.05,13.7c-.8,2.12-1.31,4.23-1.31,5.74,0,1.72,1.52,2.32,3.02,2.32h.81c.7,0,.91.31.91.71,0,.5-.5.71-1.31.71-2.12,0-6.96-.31-7.96-.31-.91,0-5.34.31-8.97.31-1.11,0-1.71-.21-1.71-.71,0-.4.4-.71.8-.71.6,0,1.91-.1,2.62-.2,4.03-.51,5.75-3.54,7.47-7.87l20.86-53.62Zm9.87,35.68c.41,0,.41-.2.3-.6l-8.76-23.48c-.5-1.31-1.01-1.31-1.51,0l-8.27,23.48c-.1.41,0,.6.3.6h17.93Z"/>
    <path class="cls-1" d="m493.79,637.02c0,12.6.2,17.74,1.82,19.25,1.41,1.41,4.84,2.02,11.79,2.02,4.64,0,8.56-.1,10.69-2.62,1.11-1.31,1.82-3.13,2.12-4.84.1-.6.4-1.11.91-1.11.4,0,.6.41.6,1.31s-.6,6.06-1.31,8.56c-.6,2.02-.9,2.33-5.64,2.33-6.36,0-11.29-.11-15.43-.31-4.03-.1-7.05-.21-9.67-.21-.4,0-1.91,0-3.63.1-1.81.1-3.73.21-5.14.21-.91,0-1.4-.21-1.4-.71,0-.3.2-.71.7-.71.8,0,1.91-.2,2.72-.4,1.71-.41,1.91-2.02,2.31-4.55.51-3.53.51-10.27.51-18.54v-15.11c0-13.31,0-15.72-.2-18.45-.2-2.92-.71-4.33-3.63-4.73-.71-.11-2.22-.2-3.03-.2-.3,0-.7-.41-.7-.71,0-.51.41-.7,1.41-.7,4.03,0,9.57.19,10.08.19.41,0,7.05-.19,9.77-.19.91,0,1.42.19,1.42.7,0,.3-.41.6-.71.6-.61,0-1.91.1-2.92.19-2.62.52-3.13,1.83-3.33,4.85-.1,2.73-.1,5.14-.1,18.45v15.32Z"/>
    <path class="cls-1" d="m549.78,637.02c0,12.6.2,17.74,1.82,19.25,1.41,1.41,4.83,2.02,11.79,2.02,4.64,0,8.57-.1,10.68-2.62,1.11-1.31,1.82-3.13,2.12-4.84.1-.6.4-1.11.91-1.11.41,0,.6.41.6,1.31s-.6,6.06-1.32,8.56c-.6,2.02-.9,2.33-5.65,2.33-6.35,0-11.28-.11-15.41-.31-4.04-.1-7.06-.21-9.68-.21-.4,0-1.91,0-3.62.1-1.82.1-3.73.21-5.14.21-.9,0-1.41-.21-1.41-.71,0-.3.2-.71.7-.71.81,0,1.92-.2,2.73-.4,1.71-.41,1.91-2.02,2.32-4.55.5-3.53.5-10.27.5-18.54v-15.11c0-13.31,0-15.72-.19-18.45-.21-2.92-.71-4.33-3.63-4.73-.71-.11-2.22-.2-3.03-.2-.3,0-.71-.41-.71-.71,0-.51.41-.7,1.41-.7,4.03,0,9.58.19,10.07.19.42,0,7.06-.19,9.78-.19.91,0,1.41.19,1.41.7,0,.3-.41.6-.7.6-.61,0-1.91.1-2.92.19-2.63.52-3.13,1.83-3.33,4.85-.1,2.73-.1,5.14-.1,18.45v15.32Z"/>
    <path class="cls-1" d="m621.95,598.61c1.09-2.82,1.51-3.32,2.11-3.32.91,0,1.22,1.21,2.12,3.12,1.61,3.62,15.83,39.01,21.26,52.01,3.23,7.66,5.65,8.76,7.56,9.38,1.31.4,2.62.5,3.53.5.49,0,1.1.2,1.1.71s-1,.71-2.01.71c-1.31,0-7.86,0-14.01-.21-1.72-.1-3.13-.1-3.13-.6,0-.41.2-.41.61-.6.5-.2,1.41-.9.8-2.32l-7.96-19.65c-.2-.41-.3-.51-.8-.51h-20.46c-.41,0-.7.21-.91.71l-5.03,13.7c-.82,2.12-1.33,4.23-1.33,5.74,0,1.72,1.52,2.32,3.03,2.32h.81c.7,0,.9.31.9.71,0,.5-.5.71-1.31.71-2.11,0-6.96-.31-7.96-.31-.91,0-5.34.31-8.97.31-1.1,0-1.71-.21-1.71-.71,0-.4.4-.71.81-.71.6,0,1.91-.1,2.61-.2,4.05-.51,5.74-3.54,7.47-7.87l20.87-53.62Zm9.87,35.68c.41,0,.41-.2.31-.6l-8.77-23.48c-.5-1.31-1-1.31-1.51,0l-8.26,23.48c-.11.41,0,.6.3.6h17.94Z"/>
    <path class="cls-1" d="m723.55,638.93c0,16.32,0,22.57-3.02,29.73-2.12,5.05-6.55,9.77-14.72,15.43-1.3.9-2.92,2.01-3.93,2.51-.2.1-.4.2-.71.2-.29,0-.7-.2-.7-.59,0-.61.5-.91,1.41-1.52,1.21-.7,2.63-1.91,3.53-2.82,6.55-6.65,9.68-11.99,9.68-37.99v-29.13c0-15.72,0-18.54-.2-21.77-.2-3.42-1-5.03-4.32-5.74-.82-.2-2.53-.29-3.43-.29-.41,0-.8-.21-.8-.61,0-.6.5-.81,1.61-.81,4.53,0,10.88.3,11.39.3s6.86-.3,9.88-.3c1.1,0,1.6.21,1.6.81,0,.41-.4.61-.81.61-.7,0-1.31.09-2.52.29-2.72.5-3.53,2.22-3.73,5.74-.2,3.23-.2,6.05-.2,21.77v24.19Z"/>
    <path class="cls-1" d="m751.11,621.7c0-13.31,0-15.72-.21-18.45-.2-2.92-.71-4.33-3.62-4.73-.71-.1-2.22-.2-3.03-.2-.3,0-.7-.41-.7-.71,0-.51.41-.7,1.41-.7,4.02,0,9.77.19,10.27.19.61,0,19.15.1,21.17,0,1.71-.1,3.32-.4,4.02-.5.41-.1.81-.41,1.21-.41.31,0,.41.41.41.8,0,.61-.51,1.61-.71,4.04-.09.8-.3,4.64-.5,5.65-.1.4-.41.91-.8.91-.5,0-.71-.41-.71-1.11,0-.61-.1-2.01-.51-3.03-.6-1.41-1.5-2.01-6.35-2.61-1.51-.21-11.79-.31-12.79-.31-.4,0-.5.31-.5.92v23.28c0,.6,0,.91.5.91,1.11,0,12.79,0,14.82-.2,2.11-.2,3.43-.3,4.33-1.21.61-.6,1.01-1.11,1.32-1.11s.5.2.5.71-.5,1.91-.7,4.73c-.21,1.72-.41,4.94-.41,5.55,0,.71-.2,1.61-.81,1.61-.41,0-.6-.3-.6-.8,0-.81,0-1.72-.41-2.83-.3-1.21-1.1-2.22-4.53-2.62-2.42-.29-11.89-.41-13.4-.41-.49,0-.6.31-.6.61v7.15c0,2.92-.09,12.9,0,14.62.19,5.73,1.82,6.86,10.58,6.86,2.33,0,6.54,0,8.87-.92,2.32-1.01,3.53-2.52,4.03-5.94.2-1.01.4-1.31.91-1.31s.6.71.6,1.31-.71,6.45-1.21,8.26c-.61,2.23-1.51,2.23-4.94,2.23-6.65,0-11.79-.21-15.41-.31-3.74-.21-6.05-.21-7.37-.21-.2,0-1.91,0-3.83.1-1.71.1-3.73.21-5.14.21-.9,0-1.41-.21-1.41-.71,0-.3.2-.71.7-.71.82,0,1.92-.3,2.73-.4,1.71-.31,1.9-2.02,2.31-4.55.51-3.53.51-10.27.51-18.54v-15.11Z"/>
    <path class="cls-1" d="m868.25,649.01h.41c2.22-7.06,10.18-31.85,13.3-42.84.91-3.23,1-4.24,1-5.34,0-1.52-.71-2.52-4.73-2.52-.51,0-.8-.51-.8-.81,0-.41.4-.59,1.5-.59,4.53,0,8.27.19,9.08.19.59,0,4.43-.19,7.15-.19.8,0,1.22.19,1.22.5,0,.4-.21.91-.81.91-.3,0-2.02.09-3.02.4-2.63.91-4.04,4.34-5.76,9.07-3.92,10.89-12.69,38.09-16.23,47.67-2.31,6.35-2.82,7.36-3.82,7.36-.91,0-1.72-1.1-2.92-4.44l-17.34-46.85c-3.01,7.45-15.01,38.79-18.24,46.76-1.51,3.63-2.12,4.53-3.13,4.53-.9,0-1.61-.9-3.42-6.75l-15.74-50.79c-1.4-4.54-2.31-5.65-4.62-6.44-1.21-.42-3.43-.51-4.03-.51-.41,0-.82-.31-.82-.81,0-.41.61-.59,1.42-.59,4.64,0,9.57.19,10.48.19.8,0,4.83-.19,9.27-.19,1.21,0,1.61.19,1.61.59,0,.5-.5.81-.9.81-.71,0-2.12,0-3.13.51-.6.19-1.21.7-1.21,1.8s.7,4.13,1.71,7.96c1.41,5.45,10.49,36.9,11.59,40.42h.2l18.55-47.89c1.31-3.42,1.92-3.92,2.42-3.92.6,0,1.3,1.11,2.41,4.04l17.34,47.77Z"/>
    <path class="cls-1" d="m916.43,621.7c0-13.31,0-15.72-.2-18.45-.21-2.92-.71-4.33-3.64-4.73-.7-.1-2.22-.2-3.03-.2-.3,0-.7-.41-.7-.71,0-.51.41-.7,1.41-.7,4.03,0,9.78.19,10.27.19.61,0,19.16.1,21.17,0,1.71-.1,3.33-.4,4.04-.5.41-.1.81-.41,1.21-.41.29,0,.41.41.41.8,0,.61-.51,1.61-.71,4.04-.1.8-.3,4.64-.5,5.65-.11.4-.41.91-.81.91-.5,0-.71-.41-.71-1.11,0-.61-.09-2.01-.5-3.03-.6-1.41-1.51-2.01-6.35-2.61-1.51-.21-11.79-.31-12.79-.31-.41,0-.51.31-.51.92v23.28c0,.6,0,.91.51.91,1.1,0,12.79,0,14.81-.2,2.12-.2,3.43-.3,4.33-1.21.61-.6,1.01-1.11,1.31-1.11s.5.2.5.71-.5,1.91-.71,4.73c-.19,1.72-.39,4.94-.39,5.55,0,.71-.21,1.61-.8,1.61-.42,0-.62-.3-.62-.8,0-.81,0-1.72-.4-2.83-.31-1.21-1.11-2.22-4.53-2.62-2.43-.29-11.89-.41-13.4-.41-.51,0-.62.31-.62.61v7.15c0,2.92-.09,12.9,0,14.62.21,5.73,1.82,6.86,10.59,6.86,2.32,0,6.55,0,8.87-.92,2.32-1.01,3.52-2.52,4.04-5.94.2-1.01.4-1.31.89-1.31s.62.71.62,1.31-.71,6.45-1.21,8.26c-.62,2.23-1.52,2.23-4.96,2.23-6.64,0-11.78-.21-15.42-.31-3.73-.21-6.05-.21-7.36-.21-.19,0-1.91,0-3.82.1-1.72.1-3.73.21-5.14.21-.92,0-1.41-.21-1.41-.71,0-.3.2-.71.72-.71.8,0,1.91-.3,2.71-.4,1.72-.31,1.91-2.02,2.32-4.55.5-3.53.5-10.27.5-18.54v-15.11Z"/>
    <path class="cls-1" d="m977.57,637.02c0,12.6.2,17.74,1.82,19.25,1.41,1.41,4.83,2.02,11.79,2.02,4.63,0,8.57-.1,10.68-2.62,1.11-1.31,1.81-3.13,2.12-4.84.1-.6.4-1.11.91-1.11.39,0,.6.41.6,1.31s-.6,6.06-1.32,8.56c-.6,2.02-.91,2.33-5.64,2.33-6.36,0-11.29-.11-15.43-.31-4.04-.1-7.06-.21-9.68-.21-.4,0-1.91,0-3.62.1-1.82.1-3.73.21-5.14.21-.92,0-1.41-.21-1.41-.71,0-.3.21-.71.71-.71.8,0,1.92-.2,2.72-.4,1.72-.41,1.92-2.02,2.32-4.55.5-3.53.5-10.27.5-18.54v-15.11c0-13.31,0-15.72-.2-18.45-.2-2.92-.7-4.33-3.63-4.73-.71-.11-2.21-.2-3.02-.2-.31,0-.71-.41-.71-.71,0-.51.4-.7,1.41-.7,4.03,0,9.58.19,10.08.19.41,0,7.06-.19,9.78-.19.91,0,1.41.19,1.41.7,0,.3-.4.6-.69.6-.61,0-1.92.1-2.94.19-2.61.52-3.12,1.83-3.32,4.85-.09,2.73-.09,5.14-.09,18.45v15.32Z"/>
    <path class="cls-1" d="m1019.1,660.49c-1.21-.59-1.31-.91-1.31-3.22,0-4.24.4-7.66.49-9.07,0-.91.21-1.41.72-1.41s.81.3.81,1.02,0,1.91.29,3.12c1.42,6.23,8.07,8.47,14.02,8.47,8.76,0,13.3-4.94,13.3-11.4s-3.32-9.06-11.19-14.91l-4.03-3.02c-9.58-7.16-12.71-12.39-12.71-18.34,0-10.08,7.98-16.13,19.66-16.13,3.52,0,7.06.5,9.18,1.01,1.71.4,2.42.4,3.12.4s.91.1.91.61c0,.4-.41,3.23-.41,9.07,0,1.3-.1,1.91-.7,1.91s-.7-.41-.81-1.1c-.1-1.01-.81-3.33-1.3-4.23-.62-1.01-3.53-4.24-11.5-4.24-6.46,0-11.79,3.23-11.79,9.27,0,5.44,2.72,8.57,11.49,14.52l2.51,1.72c10.78,7.36,14.51,13.3,14.51,20.66,0,5.05-1.91,10.49-8.26,14.62-3.73,2.41-9.28,3.02-14.11,3.02-4.13,0-9.27-.6-12.9-2.32"/>
  </g>
  <g>
    <path class="cls-1" d="m553.33,285.53c-3.63,3.65-7.72,3.97-7.72,8.02,0,1.89.94,3.08,5.92,3.08l-.42,8.39h-22.21l-.41-8.39c4.98,0,5.92-1.2,5.92-3.08,0-4.05-4.08-4.4-7.73-8.02-3.65-3.63-3.99-7.75-8.04-7.75-1.89,0-3.08.95-3.08,5.92l-8.39-.42v-22.21l8.39-.42c0,4.98,1.19,5.92,3.08,5.92,4.05,0,4.37-4.09,8.02-7.71,3.65-3.63,7.75-4,7.75-8.05,0-1.89-.95-3.07-5.93-3.07l.42-8.4h22.22l.41,8.4c-4.97,0-5.92,1.19-5.92,3.07,0,4.05,4.08,4.4,7.74,8.02,3.65,3.63,3.99,7.76,8.04,7.76,1.89,0,3.08-.94,3.08-5.92l8.39.41v22.22l-8.39.41c0-4.98-1.19-5.92-3.08-5.92-4.05,0-4.4,4.13-8.05,7.75Z"/>
    <polygon class="cls-1" points="550.81 232.42 540.01 13.2 529.19 232.42 550.81 232.42"/>
    <polygon class="cls-1" points="550.81 311.9 540.01 531.12 529.19 311.9 550.81 311.9"/>
    <path class="cls-1" d="m581.03,158.51c0,13.34-10.76,35.93-22.57,68.61-1.61,4.99-2.65,7.96,3.17,1.85,5.82-6.11,26.71-26.62,43.02-43.56,16.32-16.94,19.75-20.88,19.75-26.9s-3.43-9.96-19.75-26.89c-16.31-16.95-37.2-37.45-43.02-43.56-5.82-6.12-4.91-3.36-3.17,1.85,11.81,32.69,22.57,55.27,22.57,68.61Z"/>
    <path class="cls-1" d="m580.83,158.42c0,16.96-10.76,35.92-22.57,68.6-1.61,4.99-2.65,7.96,3.17,1.85,5.82-6.11,26.72-26.61,43.03-43.56,16.3-16.94,19.74-20.88,19.74-26.89s-3.43-9.96-19.74-26.9c-16.32-16.94-37.21-37.44-43.03-43.56-5.82-6.11-4.91-3.36-3.17,1.85,11.81,32.69,22.57,51.65,22.57,68.61Z"/>
    <path class="cls-1" d="m498.9,158.35c0-16.97,10.76-35.93,22.57-68.61,1.61-4.99,2.65-7.96-3.17-1.85-5.82,6.11-26.72,26.62-43.03,43.56-16.31,16.94-19.75,20.88-19.75,26.9s3.44,9.96,19.75,26.89c16.31,16.94,37.21,37.45,43.03,43.56,5.82,6.11,4.91,3.36,3.17-1.85-11.81-32.68-22.57-51.64-22.57-68.6Z"/>
    <path class="cls-1" d="m580.83,385.66c0,16.96-10.76,35.93-22.57,68.61-1.61,4.99-2.65,7.96,3.17,1.85,5.82-6.11,26.72-26.62,43.03-43.56,16.3-16.94,19.74-20.87,19.74-26.89s-3.43-9.95-19.74-26.9c-16.32-16.94-37.21-37.45-43.03-43.56-5.82-6.11-4.91-3.36-3.17,1.85,11.81,32.68,22.57,51.64,22.57,68.61Z"/>
    <path class="cls-1" d="m498.9,385.6c0-16.96,10.76-35.92,22.57-68.6,1.61-4.99,2.65-7.96-3.17-1.85-5.82,6.1-26.72,26.62-43.03,43.55-16.31,16.95-19.75,20.88-19.75,26.9s3.44,9.96,19.75,26.9c16.31,16.95,37.21,37.44,43.03,43.56,5.82,6.11,4.91,3.37,3.17-1.85-11.81-32.68-22.57-51.65-22.57-68.61Z"/>
    <polygon class="cls-1" points="500.26 261.31 281.04 272.12 500.26 282.93 500.26 261.31"/>
    <polygon class="cls-1" points="579.74 261.31 798.95 272.12 579.74 282.93 579.74 261.31"/>
    <path class="cls-1" d="m426.28,231.04c16.96,0,35.92,10.75,68.6,22.57,4.99,1.62,7.96,2.65,1.85-3.17-6.11-5.81-26.61-26.71-43.56-43.02-16.94-16.31-20.87-19.75-26.89-19.75s-9.96,3.44-26.9,19.75c-16.94,16.31-37.44,37.21-43.56,43.02-6.11,5.82-3.36,4.91,1.85,3.17,32.68-11.81,51.65-22.57,68.61-22.57Z"/>
    <path class="cls-1" d="m426.21,312.97c-16.96,0-35.93-10.76-68.61-22.57-4.99-1.62-7.96-2.65-1.85,3.17,6.11,5.82,26.62,26.71,43.56,43.02,16.94,16.32,20.88,19.75,26.9,19.75s9.95-3.43,26.89-19.75c16.95-16.31,37.45-37.2,43.57-43.02,6.11-5.82,3.36-4.91-1.86-3.17-32.68,11.81-51.64,22.57-68.6,22.57Z"/>
    <path class="cls-1" d="m653.52,231.04c16.96,0,35.93,10.75,68.61,22.57,4.99,1.62,7.96,2.65,1.85-3.17-6.11-5.81-26.62-26.71-43.56-43.02-16.94-16.31-20.88-19.75-26.9-19.75s-9.96,3.44-26.89,19.75c-16.95,16.31-37.45,37.21-43.56,43.02-6.11,5.82-3.36,4.91,1.85,3.17,32.68-11.81,51.65-22.57,68.6-22.57Z"/>
    <path class="cls-1" d="m653.46,312.97c-16.96,0-35.93-10.76-68.61-22.57-4.98-1.62-7.96-2.65-1.85,3.17,6.12,5.82,26.62,26.71,43.56,43.02,16.95,16.32,20.89,19.75,26.9,19.75s9.96-3.43,26.89-19.75c16.95-16.31,37.45-37.2,43.57-43.02,6.1-5.82,3.36-4.91-1.85-3.17-32.68,11.81-51.64,22.57-68.61,22.57Z"/>
  </g>
</svg>