<?xml version="1.0" encoding="utf-8"?>
<!-- Generator: Adobe Illustrator 27.1.1, SVG Export Plug-In . SVG Version: 6.00 Build 0)  -->
<svg version="1.1" xmlns="http://www.w3.org/2000/svg" xmlns:xlink="http://www.w3.org/1999/xlink" x="0px" y="0px"
	 viewBox="0 0 230 130" style="enable-background:new 0 0 230 130;" xml:space="preserve">
<style type="text/css">
	.st0{display:none;}
	.st1{display:inline;}
	.st2{fill:#FFFFFF;}
	.st3{fill:#CC2027;}
	.st4{fill:#BE1E2D;}
	.st5{fill-rule:evenodd;clip-rule:evenodd;fill:#FFFFFF;}
	.st6{display:inline;opacity:0.26;}
	.st7{display:inline;opacity:0.46;fill:#00FF18;}
	.st8{display:inline;opacity:0.67;fill:#FFFFFF;stroke:#000000;stroke-miterlimit:10;}
	.st9{display:inline;opacity:0.25;}
	.st10{fill:#FC0000;}
	.st11{display:inline;opacity:0.54;fill:#FFFFFF;}
	.st12{display:inline;opacity:0.55;fill:#FFFFFF;}
	.st13{fill:#FF0000;}
</style>
<g id="Layer_18" class="st0">
	<rect x="-2671.55" y="-43.26" class="st1" width="3500.94" height="279.83"/>
</g>
<g id="Layer_17">
	<g>
		<g>
			<path class="st2" d="M58.88,98.97c-0.15-0.08-0.17-0.12-0.17-0.42c0-0.55,0.04-0.99,0.05-1.17c0.01-0.12,0.03-0.18,0.09-0.18
				c0.07,0,0.08,0.03,0.08,0.12c0,0.1,0,0.25,0.03,0.41c0.17,0.82,0.89,1.13,1.63,1.13c1.06,0,1.58-0.76,1.58-1.47
				c0-0.76-0.32-1.2-1.27-1.99L60.41,95c-1.17-0.96-1.43-1.64-1.43-2.39c0-1.18,0.88-1.99,2.28-1.99c0.43,0,0.75,0.04,1.03,0.11
				c0.21,0.04,0.3,0.05,0.39,0.05c0.09,0,0.11,0.02,0.11,0.08c0,0.05-0.04,0.42-0.04,1.17c0,0.18-0.02,0.25-0.08,0.25
				c-0.07,0-0.08-0.05-0.09-0.14c-0.01-0.13-0.08-0.43-0.14-0.55c-0.07-0.12-0.36-0.58-1.38-0.58c-0.76,0-1.36,0.47-1.36,1.28
				c0,0.63,0.29,1.03,1.35,1.85l0.31,0.24c1.3,1.02,1.61,1.71,1.61,2.59c0,0.45-0.18,1.29-0.94,1.83c-0.47,0.33-1.07,0.46-1.67,0.46
				C59.83,99.27,59.33,99.19,58.88,98.97"/>
			<path class="st2" d="M70.89,96.39c0,0.91,0.01,1.64,0.05,2.03c0.03,0.28,0.06,0.45,0.35,0.5c0.13,0.02,0.35,0.04,0.43,0.04
				c0.07,0,0.09,0.04,0.09,0.08c0,0.04-0.05,0.08-0.17,0.08c-0.53,0-1.15-0.03-1.2-0.03c-0.04,0-0.67,0.03-0.96,0.03
				c-0.11,0-0.15-0.02-0.15-0.08c0-0.03,0.02-0.08,0.08-0.08c0.09,0,0.2-0.02,0.29-0.04c0.2-0.04,0.23-0.23,0.26-0.51
				c0.04-0.38,0.04-1.09,0.04-2v-0.94c0-0.04-0.02-0.05-0.06-0.05H65.9c-0.03,0-0.05,0.01-0.05,0.05v0.94c0,0.9,0,1.62,0.04,2.01
				c0.03,0.28,0.07,0.45,0.35,0.5c0.14,0.02,0.35,0.04,0.44,0.04c0.06,0,0.08,0.04,0.08,0.08c0,0.04-0.04,0.08-0.15,0.08
				c-0.54,0-1.16-0.03-1.2-0.03c-0.05,0-0.67,0.03-0.97,0.03c-0.1,0-0.15-0.02-0.15-0.08c0-0.03,0.02-0.08,0.08-0.08
				c0.09,0,0.21-0.02,0.3-0.04c0.19-0.04,0.21-0.22,0.25-0.5c0.06-0.39,0.06-1.12,0.06-2.03v-1.65c0-1.46,0-1.72-0.02-2.02
				c-0.02-0.32-0.08-0.47-0.4-0.52c-0.08-0.01-0.24-0.02-0.33-0.02c-0.03,0-0.08-0.04-0.08-0.08c0-0.05,0.04-0.08,0.15-0.08
				c0.44,0,1.06,0.02,1.11,0.02c0.04,0,0.66-0.02,0.96-0.02c0.11,0,0.15,0.02,0.15,0.08c0,0.03-0.04,0.08-0.08,0.08
				c-0.07,0-0.13,0-0.24,0.02c-0.26,0.05-0.32,0.19-0.34,0.52c-0.01,0.3-0.01,0.58-0.01,2.04v0.2c0,0.05,0.02,0.05,0.05,0.05h4.05
				c0.03,0,0.06,0,0.06-0.05v-0.2c0-1.46-0.01-1.74-0.02-2.04c-0.02-0.32-0.07-0.47-0.39-0.52c-0.08-0.01-0.24-0.02-0.33-0.02
				c-0.04,0-0.08-0.04-0.08-0.08c0-0.05,0.04-0.08,0.16-0.08c0.43,0,1.06,0.02,1.1,0.02c0.06,0,0.67-0.02,0.96-0.02
				c0.11,0,0.17,0.02,0.17,0.08c0,0.03-0.04,0.08-0.09,0.08c-0.07,0-0.12,0-0.24,0.02c-0.25,0.05-0.31,0.19-0.33,0.52
				c-0.02,0.3-0.02,0.56-0.02,2.02V96.39z"/>
			<path class="st2" d="M76.65,92.21c0.12-0.31,0.16-0.36,0.23-0.36c0.1,0,0.13,0.13,0.23,0.34c0.18,0.4,1.73,4.27,2.33,5.69
				c0.35,0.84,0.62,0.96,0.83,1.03c0.14,0.04,0.29,0.05,0.39,0.05c0.06,0,0.12,0.02,0.12,0.08c0,0.05-0.11,0.08-0.22,0.08
				c-0.14,0-0.86,0-1.53-0.02c-0.19-0.01-0.34-0.01-0.34-0.07c0-0.04,0.02-0.04,0.07-0.07c0.06-0.02,0.15-0.1,0.09-0.25l-0.87-2.15
				c-0.02-0.04-0.03-0.06-0.09-0.06h-2.24c-0.04,0-0.08,0.02-0.1,0.08l-0.55,1.5c-0.09,0.23-0.14,0.46-0.14,0.63
				c0,0.19,0.17,0.25,0.33,0.25h0.09c0.08,0,0.1,0.03,0.1,0.08c0,0.05-0.06,0.08-0.14,0.08c-0.23,0-0.76-0.03-0.87-0.03
				c-0.1,0-0.58,0.03-0.98,0.03c-0.12,0-0.19-0.02-0.19-0.08c0-0.04,0.04-0.08,0.09-0.08c0.07,0,0.21-0.01,0.29-0.02
				c0.44-0.06,0.63-0.39,0.82-0.86L76.65,92.21z M77.73,96.11c0.04,0,0.04-0.02,0.03-0.07l-0.96-2.57c-0.06-0.14-0.11-0.14-0.17,0
				l-0.9,2.57c-0.01,0.04,0,0.07,0.03,0.07H77.73z"/>
			<path class="st2" d="M90.6,97.9c0.03,0.33,0.1,0.84,0.5,0.97c0.28,0.09,0.53,0.09,0.63,0.09c0.04,0,0.08,0.02,0.08,0.07
				c0,0.05-0.09,0.09-0.2,0.09c-0.22,0-1.3-0.02-1.65-0.05c-0.23-0.02-0.28-0.06-0.28-0.1c0-0.03,0.02-0.07,0.07-0.08
				c0.05-0.01,0.07-0.15,0.04-0.33l-0.46-4.74H89.3l-2.34,4.79c-0.2,0.41-0.25,0.5-0.34,0.5c-0.09,0-0.14-0.09-0.33-0.43
				c-0.25-0.46-0.89-1.67-1.14-2.17c-0.29-0.6-1.07-2.17-1.24-2.56h-0.04l-0.38,4.24c-0.01,0.14-0.01,0.32-0.01,0.47
				c0,0.14,0.09,0.23,0.23,0.27c0.17,0.04,0.31,0.05,0.37,0.05c0.03,0,0.08,0.03,0.08,0.07c0,0.07-0.07,0.09-0.18,0.09
				c-0.36,0-0.83-0.03-0.9-0.03c-0.09,0-0.55,0.03-0.82,0.03c-0.1,0-0.17-0.02-0.17-0.09c0-0.03,0.05-0.07,0.1-0.07
				c0.08,0,0.14-0.01,0.29-0.03c0.32-0.05,0.33-0.4,0.37-0.75l0.71-6.12c0.01-0.1,0.06-0.17,0.11-0.17c0.07,0,0.14,0.03,0.2,0.14
				l2.93,5.82l2.82-5.81c0.04-0.09,0.09-0.15,0.15-0.15c0.07,0,0.12,0.08,0.14,0.25L90.6,97.9z"/>
			<path class="st2" d="M94.08,94.73c0-1.46,0-1.72-0.02-2.02c-0.02-0.32-0.08-0.5-0.4-0.54c-0.08-0.01-0.24-0.02-0.33-0.02
				c-0.03,0-0.08-0.02-0.08-0.05c0-0.06,0.04-0.08,0.15-0.08c0.44,0,1.07,0.02,1.13,0.02c0.23,0,0.68-0.02,1.14-0.02
				c1.62,0,2.04,0.94,2.04,1.43c0,0.74-0.49,1.2-0.98,1.64c0.74,0.22,1.71,0.89,1.71,1.95c0,1.05-0.78,2.09-2.44,2.09
				c-0.18,0-0.53-0.01-0.84-0.03c-0.31-0.01-0.58-0.02-0.63-0.02c-0.02,0-0.2,0.01-0.4,0.01c-0.2,0.01-0.43,0.02-0.58,0.02
				c-0.1,0-0.15-0.02-0.15-0.08c0-0.03,0.02-0.06,0.08-0.06c0.09,0,0.21-0.03,0.3-0.04c0.19-0.03,0.21-0.24,0.25-0.52
				c0.06-0.39,0.06-1.12,0.06-2.03V94.73z M94.91,94.93c0,0.07,0.02,0.09,0.07,0.1c0.05,0.01,0.23,0.04,0.6,0.04
				c0.54,0,0.75-0.02,0.95-0.24c0.21-0.23,0.38-0.55,0.38-1c0-0.72-0.4-1.51-1.37-1.51c-0.11,0-0.34,0.01-0.5,0.04
				c-0.09,0.02-0.12,0.04-0.12,0.1V94.93z M94.91,95.97c0,0.73,0,1.85,0.01,2c0.03,0.45,0.03,0.56,0.33,0.71
				c0.26,0.12,0.67,0.13,0.85,0.13c0.64,0,1.42-0.24,1.42-1.45c0-0.42-0.17-1.23-0.93-1.71c-0.33-0.21-0.64-0.2-0.87-0.24
				c-0.12-0.02-0.61-0.02-0.76-0.02c-0.03,0-0.06,0.02-0.06,0.07V95.97z"/>
			<path class="st2" d="M102.82,92.21c0.12-0.31,0.16-0.36,0.23-0.36c0.1,0,0.13,0.13,0.23,0.34c0.18,0.4,1.73,4.27,2.33,5.69
				c0.35,0.84,0.62,0.96,0.83,1.03c0.14,0.04,0.29,0.05,0.39,0.05c0.05,0,0.07,0.02,0.07,0.08c0,0.05-0.06,0.08-0.17,0.08
				c-0.14,0-0.86,0-1.53-0.02c-0.19-0.01-0.34-0.01-0.34-0.07c0-0.04,0.02-0.04,0.07-0.07c0.06-0.02,0.15-0.1,0.09-0.25l-0.87-2.15
				c-0.02-0.04-0.03-0.06-0.09-0.06h-2.24c-0.04,0-0.08,0.02-0.1,0.08l-0.55,1.5c-0.09,0.23-0.14,0.46-0.14,0.63
				c0,0.19,0.17,0.25,0.33,0.25h0.09c0.08,0,0.1,0.03,0.1,0.08c0,0.05-0.06,0.08-0.14,0.08c-0.23,0-0.76-0.03-0.87-0.03
				c-0.1,0-0.58,0.03-0.98,0.03c-0.12,0-0.19-0.02-0.19-0.08c0-0.04,0.04-0.08,0.09-0.08c0.07,0,0.21-0.01,0.29-0.02
				c0.44-0.06,0.63-0.39,0.82-0.86L102.82,92.21z M103.9,96.11c0.04,0,0.04-0.02,0.03-0.07l-0.96-2.57c-0.06-0.14-0.11-0.14-0.17,0
				l-0.9,2.57c-0.01,0.04,0,0.07,0.03,0.07H103.9z"/>
			<path class="st2" d="M109.94,96.41c0,1.38,0.02,1.94,0.2,2.11c0.15,0.15,0.53,0.22,1.29,0.22c0.51,0,0.94-0.01,1.17-0.29
				c0.12-0.14,0.2-0.34,0.23-0.53c0.01-0.07,0.04-0.12,0.1-0.12c0.04,0,0.07,0.04,0.07,0.14c0,0.1-0.07,0.66-0.14,0.94
				c-0.07,0.22-0.1,0.25-0.62,0.25c-0.7,0-1.24-0.01-1.69-0.03c-0.44-0.01-0.77-0.02-1.06-0.02c-0.04,0-0.21,0-0.4,0.01
				c-0.2,0.01-0.41,0.02-0.56,0.02c-0.1,0-0.15-0.02-0.15-0.08c0-0.03,0.02-0.08,0.08-0.08c0.09,0,0.21-0.02,0.3-0.04
				c0.19-0.04,0.21-0.22,0.25-0.5c0.06-0.39,0.06-1.12,0.06-2.03v-1.65c0-1.46,0-1.72-0.02-2.02c-0.02-0.32-0.08-0.47-0.4-0.52
				c-0.08-0.01-0.24-0.02-0.33-0.02c-0.03,0-0.08-0.04-0.08-0.08c0-0.06,0.04-0.08,0.15-0.08c0.44,0,1.05,0.02,1.1,0.02
				c0.04,0,0.77-0.02,1.07-0.02c0.1,0,0.16,0.02,0.16,0.08c0,0.03-0.04,0.07-0.08,0.07c-0.07,0-0.21,0.01-0.32,0.02
				c-0.29,0.06-0.34,0.2-0.36,0.53c-0.01,0.3-0.01,0.56-0.01,2.02V96.41z"/>
			<path class="st2" d="M116.07,96.41c0,1.38,0.02,1.94,0.2,2.11c0.15,0.15,0.53,0.22,1.29,0.22c0.51,0,0.94-0.01,1.17-0.29
				c0.12-0.14,0.2-0.34,0.23-0.53c0.01-0.07,0.04-0.12,0.1-0.12c0.04,0,0.07,0.04,0.07,0.14c0,0.1-0.07,0.66-0.14,0.94
				c-0.07,0.22-0.1,0.25-0.62,0.25c-0.69,0-1.23-0.01-1.69-0.03c-0.44-0.01-0.77-0.02-1.06-0.02c-0.04,0-0.21,0-0.4,0.01
				c-0.2,0.01-0.41,0.02-0.56,0.02c-0.1,0-0.15-0.02-0.15-0.08c0-0.03,0.02-0.08,0.08-0.08c0.09,0,0.21-0.02,0.3-0.04
				c0.19-0.04,0.21-0.22,0.25-0.5c0.05-0.39,0.05-1.12,0.05-2.03v-1.65c0-1.46,0-1.72-0.02-2.02c-0.02-0.32-0.08-0.47-0.4-0.52
				c-0.08-0.01-0.24-0.02-0.33-0.02c-0.03,0-0.08-0.04-0.08-0.08c0-0.06,0.04-0.08,0.15-0.08c0.44,0,1.05,0.02,1.1,0.02
				c0.05,0,0.77-0.02,1.07-0.02c0.1,0,0.15,0.02,0.15,0.08c0,0.03-0.04,0.07-0.08,0.07c-0.07,0-0.21,0.01-0.32,0.02
				c-0.29,0.06-0.34,0.2-0.36,0.53c-0.01,0.3-0.01,0.56-0.01,2.02V96.41z"/>
			<path class="st2" d="M123.97,92.21c0.12-0.31,0.17-0.36,0.23-0.36c0.1,0,0.13,0.13,0.23,0.34c0.18,0.4,1.73,4.27,2.33,5.69
				c0.35,0.84,0.62,0.96,0.83,1.03c0.14,0.04,0.29,0.05,0.39,0.05c0.05,0,0.12,0.02,0.12,0.08c0,0.05-0.11,0.08-0.22,0.08
				c-0.14,0-0.86,0-1.53-0.02c-0.19-0.01-0.34-0.01-0.34-0.07c0-0.04,0.02-0.04,0.07-0.07c0.06-0.02,0.15-0.1,0.09-0.25l-0.87-2.15
				c-0.02-0.04-0.03-0.06-0.09-0.06h-2.24c-0.04,0-0.08,0.02-0.1,0.08l-0.55,1.5c-0.09,0.23-0.15,0.46-0.15,0.63
				c0,0.19,0.17,0.25,0.33,0.25h0.09c0.08,0,0.1,0.03,0.1,0.08c0,0.05-0.06,0.08-0.14,0.08c-0.23,0-0.76-0.03-0.87-0.03
				c-0.1,0-0.58,0.03-0.98,0.03c-0.12,0-0.19-0.02-0.19-0.08c0-0.04,0.04-0.08,0.09-0.08c0.07,0,0.21-0.01,0.29-0.02
				c0.44-0.06,0.63-0.39,0.82-0.86L123.97,92.21z M125.05,96.11c0.04,0,0.04-0.02,0.03-0.07l-0.96-2.57c-0.05-0.14-0.11-0.14-0.17,0
				l-0.9,2.57c-0.01,0.04,0,0.07,0.03,0.07H125.05z"/>
			<path class="st2" d="M135.09,96.62c0,1.79,0,2.47-0.33,3.25c-0.23,0.55-0.72,1.07-1.61,1.69c-0.14,0.1-0.32,0.22-0.43,0.27
				c-0.02,0.01-0.04,0.02-0.08,0.02c-0.03,0-0.08-0.02-0.08-0.07c0-0.07,0.06-0.1,0.15-0.17c0.13-0.08,0.29-0.21,0.39-0.31
				c0.72-0.73,1.06-1.31,1.06-4.16v-3.19c0-1.72,0-2.03-0.02-2.38c-0.02-0.37-0.11-0.55-0.47-0.63c-0.09-0.02-0.28-0.03-0.38-0.03
				c-0.04,0-0.09-0.02-0.09-0.07c0-0.07,0.05-0.09,0.18-0.09c0.5,0,1.19,0.03,1.25,0.03c0.06,0,0.75-0.03,1.08-0.03
				c0.12,0,0.18,0.02,0.18,0.09c0,0.04-0.04,0.07-0.09,0.07c-0.08,0-0.14,0.01-0.28,0.03c-0.3,0.05-0.39,0.24-0.41,0.63
				c-0.02,0.35-0.02,0.66-0.02,2.38V96.62z"/>
			<path class="st2" d="M138.1,94.73c0-1.46,0-1.72-0.02-2.02c-0.02-0.32-0.08-0.47-0.4-0.52c-0.08-0.01-0.24-0.02-0.33-0.02
				c-0.03,0-0.08-0.04-0.08-0.08c0-0.06,0.04-0.08,0.15-0.08c0.44,0,1.07,0.02,1.12,0.02c0.07,0,2.1,0.01,2.32,0
				c0.19-0.01,0.36-0.04,0.44-0.05c0.04-0.01,0.09-0.04,0.13-0.04c0.03,0,0.04,0.04,0.04,0.09c0,0.07-0.06,0.18-0.08,0.44
				c-0.01,0.09-0.03,0.51-0.05,0.62c-0.01,0.04-0.04,0.1-0.09,0.1c-0.06,0-0.08-0.04-0.08-0.12c0-0.07-0.01-0.22-0.06-0.33
				c-0.07-0.15-0.16-0.22-0.7-0.29c-0.17-0.02-1.29-0.03-1.4-0.03c-0.04,0-0.05,0.03-0.05,0.1v2.55c0,0.07,0,0.1,0.05,0.1
				c0.12,0,1.4,0,1.62-0.02c0.23-0.02,0.38-0.03,0.47-0.13c0.07-0.07,0.11-0.12,0.14-0.12c0.03,0,0.05,0.02,0.05,0.08
				c0,0.05-0.05,0.21-0.08,0.52c-0.02,0.19-0.04,0.54-0.04,0.61c0,0.08-0.02,0.18-0.09,0.18c-0.04,0-0.07-0.03-0.07-0.09
				c0-0.09,0-0.19-0.05-0.31c-0.03-0.13-0.12-0.24-0.5-0.29c-0.26-0.03-1.3-0.04-1.47-0.04c-0.05,0-0.07,0.03-0.07,0.07v0.78
				c0,0.32-0.01,1.41,0,1.6c0.02,0.63,0.2,0.75,1.16,0.75c0.25,0,0.72,0,0.97-0.1c0.25-0.11,0.39-0.28,0.44-0.65
				c0.02-0.11,0.04-0.14,0.1-0.14c0.05,0,0.07,0.08,0.07,0.14c0,0.07-0.08,0.71-0.13,0.9c-0.07,0.24-0.17,0.24-0.54,0.24
				c-0.73,0-1.29-0.02-1.69-0.03c-0.41-0.02-0.66-0.02-0.81-0.02c-0.02,0-0.21,0-0.42,0.01c-0.19,0.01-0.41,0.02-0.56,0.02
				c-0.1,0-0.15-0.02-0.15-0.08c0-0.03,0.02-0.08,0.08-0.08c0.09,0,0.21-0.03,0.3-0.04c0.19-0.03,0.21-0.22,0.25-0.5
				c0.06-0.39,0.06-1.12,0.06-2.03V94.73z"/>
			<path class="st2" d="M150.92,97.72h0.04c0.24-0.77,1.11-3.49,1.46-4.69c0.1-0.35,0.11-0.46,0.11-0.58c0-0.17-0.08-0.28-0.52-0.28
				c-0.06,0-0.09-0.06-0.09-0.09c0-0.04,0.04-0.07,0.16-0.07c0.5,0,0.9,0.02,0.99,0.02c0.07,0,0.48-0.02,0.78-0.02
				c0.09,0,0.13,0.02,0.13,0.05c0,0.04-0.02,0.1-0.09,0.1c-0.03,0-0.22,0.01-0.33,0.04c-0.29,0.1-0.44,0.47-0.63,0.99
				c-0.43,1.19-1.39,4.17-1.78,5.22c-0.25,0.69-0.31,0.81-0.42,0.81c-0.1,0-0.19-0.12-0.32-0.49l-1.9-5.13
				c-0.33,0.82-1.64,4.25-2,5.12c-0.17,0.4-0.23,0.5-0.34,0.5c-0.1,0-0.18-0.1-0.37-0.74l-1.72-5.56c-0.15-0.5-0.25-0.62-0.51-0.7
				c-0.13-0.05-0.38-0.06-0.44-0.06c-0.04,0-0.09-0.03-0.09-0.09c0-0.04,0.07-0.07,0.16-0.07c0.51,0,1.05,0.02,1.15,0.02
				c0.09,0,0.53-0.02,1.01-0.02c0.13,0,0.18,0.02,0.18,0.07c0,0.05-0.05,0.09-0.1,0.09c-0.08,0-0.23,0-0.34,0.06
				c-0.07,0.02-0.13,0.08-0.13,0.2c0,0.12,0.08,0.45,0.19,0.87c0.15,0.6,1.15,4.04,1.27,4.42h0.02l2.03-5.24
				c0.14-0.37,0.21-0.43,0.27-0.43c0.07,0,0.14,0.12,0.26,0.44L150.92,97.72z"/>
			<path class="st2" d="M156.19,94.73c0-1.46,0-1.72-0.02-2.02c-0.02-0.32-0.08-0.47-0.4-0.52c-0.08-0.01-0.24-0.02-0.33-0.02
				c-0.03,0-0.08-0.04-0.08-0.08c0-0.06,0.04-0.08,0.15-0.08c0.44,0,1.07,0.02,1.12,0.02c0.07,0,2.1,0.01,2.32,0
				c0.19-0.01,0.36-0.04,0.44-0.05c0.04-0.01,0.09-0.04,0.13-0.04c0.03,0,0.04,0.04,0.04,0.09c0,0.07-0.06,0.18-0.08,0.44
				c-0.01,0.09-0.03,0.51-0.05,0.62c-0.01,0.04-0.04,0.1-0.09,0.1c-0.05,0-0.08-0.04-0.08-0.12c0-0.07-0.01-0.22-0.06-0.33
				c-0.07-0.15-0.17-0.22-0.69-0.29c-0.17-0.02-1.29-0.03-1.4-0.03c-0.04,0-0.06,0.03-0.06,0.1v2.55c0,0.07,0,0.1,0.06,0.1
				c0.12,0,1.4,0,1.62-0.02c0.23-0.02,0.38-0.03,0.47-0.13c0.07-0.07,0.11-0.12,0.14-0.12c0.03,0,0.06,0.02,0.06,0.08
				c0,0.05-0.06,0.21-0.08,0.52c-0.02,0.19-0.04,0.54-0.04,0.61c0,0.08-0.02,0.18-0.09,0.18c-0.05,0-0.07-0.03-0.07-0.09
				c0-0.09,0-0.19-0.04-0.31c-0.03-0.13-0.12-0.24-0.5-0.29c-0.27-0.03-1.3-0.04-1.47-0.04c-0.06,0-0.07,0.03-0.07,0.07v0.78
				c0,0.32-0.01,1.41,0,1.6c0.02,0.63,0.2,0.75,1.16,0.75c0.25,0,0.72,0,0.97-0.1c0.25-0.11,0.39-0.28,0.44-0.65
				c0.02-0.11,0.04-0.14,0.1-0.14c0.06,0,0.07,0.08,0.07,0.14c0,0.07-0.08,0.71-0.13,0.9c-0.07,0.24-0.17,0.24-0.54,0.24
				c-0.73,0-1.29-0.02-1.69-0.03c-0.41-0.02-0.66-0.02-0.81-0.02c-0.02,0-0.21,0-0.42,0.01c-0.19,0.01-0.41,0.02-0.56,0.02
				c-0.1,0-0.15-0.02-0.15-0.08c0-0.03,0.02-0.08,0.08-0.08c0.09,0,0.21-0.03,0.3-0.04c0.19-0.03,0.21-0.22,0.25-0.5
				c0.05-0.39,0.05-1.12,0.05-2.03V94.73z"/>
			<path class="st2" d="M162.89,96.41c0,1.38,0.02,1.94,0.2,2.11c0.15,0.15,0.53,0.22,1.29,0.22c0.51,0,0.94-0.01,1.17-0.29
				c0.12-0.14,0.2-0.34,0.23-0.53c0.01-0.07,0.04-0.12,0.1-0.12c0.04,0,0.07,0.04,0.07,0.14c0,0.1-0.07,0.66-0.14,0.94
				c-0.07,0.22-0.1,0.25-0.62,0.25c-0.7,0-1.24-0.01-1.69-0.03c-0.44-0.01-0.77-0.02-1.06-0.02c-0.04,0-0.21,0-0.4,0.01
				c-0.2,0.01-0.41,0.02-0.56,0.02c-0.1,0-0.15-0.02-0.15-0.08c0-0.03,0.02-0.08,0.08-0.08c0.09,0,0.21-0.02,0.3-0.04
				c0.19-0.04,0.21-0.22,0.25-0.5c0.06-0.39,0.06-1.12,0.06-2.03v-1.65c0-1.46,0-1.72-0.02-2.02c-0.02-0.32-0.08-0.47-0.4-0.52
				c-0.08-0.01-0.24-0.02-0.33-0.02c-0.03,0-0.08-0.04-0.08-0.08c0-0.06,0.04-0.08,0.15-0.08c0.44,0,1.05,0.02,1.1,0.02
				c0.04,0,0.77-0.02,1.07-0.02c0.1,0,0.15,0.02,0.15,0.08c0,0.03-0.04,0.07-0.08,0.07c-0.07,0-0.21,0.01-0.32,0.02
				c-0.29,0.06-0.34,0.2-0.36,0.53c-0.01,0.3-0.01,0.56-0.01,2.02V96.41z"/>
			<path class="st2" d="M167.43,98.98c-0.13-0.07-0.14-0.1-0.14-0.35c0-0.46,0.04-0.84,0.05-0.99c0-0.1,0.02-0.15,0.08-0.15
				c0.05,0,0.09,0.03,0.09,0.11c0,0.08,0,0.21,0.03,0.34c0.16,0.68,0.88,0.93,1.53,0.93c0.96,0,1.46-0.54,1.46-1.25
				c0-0.67-0.36-0.99-1.22-1.63l-0.44-0.33c-1.05-0.78-1.39-1.36-1.39-2.01c0-1.1,0.87-1.76,2.15-1.76c0.39,0,0.77,0.05,1,0.11
				c0.19,0.04,0.26,0.04,0.34,0.04c0.08,0,0.1,0.01,0.1,0.07c0,0.04-0.04,0.35-0.04,0.99c0,0.14-0.01,0.21-0.08,0.21
				c-0.07,0-0.08-0.04-0.09-0.12c-0.01-0.11-0.09-0.36-0.14-0.46c-0.07-0.11-0.39-0.46-1.26-0.46c-0.71,0-1.29,0.35-1.29,1.01
				c0,0.6,0.3,0.94,1.26,1.59l0.28,0.19c1.18,0.81,1.59,1.46,1.59,2.26c0,0.55-0.21,1.15-0.9,1.6c-0.41,0.26-1.02,0.33-1.54,0.33
				C168.39,99.23,167.83,99.17,167.43,98.98"/>
		</g>
		<g>
			<path class="st2" d="M116.46,57.94c-0.4,0.4-0.85,0.43-0.85,0.88c0,0.21,0.1,0.34,0.65,0.34l-0.05,0.92H115h-1.22l-0.04-0.92
				c0.54,0,0.65-0.13,0.65-0.34c0-0.44-0.45-0.48-0.85-0.88c-0.4-0.4-0.44-0.85-0.88-0.85c-0.21,0-0.34,0.1-0.34,0.65l-0.92-0.05
				v-1.22v-1.21l0.92-0.05c0,0.54,0.13,0.65,0.34,0.65c0.44,0,0.48-0.45,0.88-0.84c0.4-0.4,0.85-0.44,0.85-0.88
				c0-0.21-0.1-0.34-0.65-0.34l0.05-0.92H115h1.22l0.04,0.92c-0.54,0-0.65,0.13-0.65,0.34c0,0.44,0.45,0.48,0.85,0.88
				c0.4,0.4,0.44,0.85,0.88,0.85c0.21,0,0.34-0.1,0.34-0.65l0.92,0.05v1.22v1.22l-0.92,0.04c0-0.54-0.13-0.65-0.34-0.65
				C116.9,57.1,116.86,57.55,116.46,57.94z"/>
			<polygon class="st2" points="116.18,52.13 115,28.14 113.82,52.13 			"/>
			<polygon class="st2" points="116.18,60.83 115,84.82 113.82,60.83 			"/>
			<path class="st2" d="M119.49,44.04c0,1.46-1.18,3.93-2.47,7.51c-0.18,0.55-0.29,0.87,0.35,0.2c0.64-0.67,2.92-2.91,4.71-4.77
				c1.79-1.85,2.16-2.29,2.16-2.94c0-0.66-0.38-1.09-2.16-2.94c-1.79-1.85-4.07-4.1-4.71-4.77c-0.64-0.67-0.54-0.37-0.35,0.2
				C118.31,40.11,119.49,42.58,119.49,44.04z"/>
			<path class="st2" d="M119.47,44.03c0,1.86-1.18,3.93-2.47,7.51c-0.18,0.55-0.29,0.87,0.35,0.2c0.64-0.67,2.92-2.91,4.71-4.77
				c1.78-1.85,2.16-2.29,2.16-2.94c0-0.66-0.38-1.09-2.16-2.94c-1.79-1.85-4.07-4.1-4.71-4.77c-0.64-0.67-0.54-0.37-0.35,0.2
				C118.29,40.1,119.47,42.18,119.47,44.03z"/>
			<path class="st2" d="M110.5,44.03c0-1.86,1.18-3.93,2.47-7.51c0.18-0.55,0.29-0.87-0.35-0.2c-0.64,0.67-2.92,2.91-4.71,4.77
				c-1.79,1.85-2.16,2.28-2.16,2.94c0,0.66,0.38,1.09,2.16,2.94c1.79,1.85,4.07,4.1,4.71,4.77c0.64,0.67,0.54,0.37,0.35-0.2
				C111.68,47.96,110.5,45.88,110.5,44.03z"/>
			<path class="st2" d="M119.47,68.9c0,1.86-1.18,3.93-2.47,7.51c-0.18,0.55-0.29,0.87,0.35,0.2c0.64-0.67,2.92-2.91,4.71-4.77
				c1.78-1.85,2.16-2.28,2.16-2.94s-0.38-1.09-2.16-2.94c-1.79-1.85-4.07-4.1-4.71-4.77c-0.64-0.67-0.54-0.37-0.35,0.2
				C118.29,64.97,119.47,67.05,119.47,68.9z"/>
			<path class="st2" d="M110.5,68.9c0-1.86,1.18-3.93,2.47-7.51c0.18-0.55,0.29-0.87-0.35-0.2c-0.64,0.67-2.92,2.91-4.71,4.77
				c-1.79,1.85-2.16,2.29-2.16,2.94s0.38,1.09,2.16,2.94c1.79,1.85,4.07,4.1,4.71,4.77c0.64,0.67,0.54,0.37,0.35-0.2
				C111.68,72.83,110.5,70.75,110.5,68.9z"/>
			<polygon class="st2" points="110.65,55.29 86.66,56.48 110.65,57.66 			"/>
			<polygon class="st2" points="119.35,55.29 143.34,56.48 119.35,57.66 			"/>
			<path class="st2" d="M102.55,51.98c1.86,0,3.93,1.18,7.51,2.47c0.55,0.18,0.87,0.29,0.2-0.35c-0.67-0.64-2.91-2.92-4.77-4.71
				c-1.85-1.78-2.28-2.16-2.94-2.16c-0.66,0-1.09,0.38-2.94,2.16c-1.85,1.79-4.1,4.07-4.77,4.71c-0.67,0.64-0.37,0.54,0.2,0.35
				C98.62,53.16,100.7,51.98,102.55,51.98z"/>
			<path class="st2" d="M102.55,60.95c-1.86,0-3.93-1.18-7.51-2.47c-0.55-0.18-0.87-0.29-0.2,0.35c0.67,0.64,2.91,2.92,4.77,4.71
				c1.85,1.79,2.29,2.16,2.94,2.16c0.66,0,1.09-0.38,2.94-2.16c1.85-1.79,4.1-4.07,4.77-4.71c0.67-0.64,0.37-0.54-0.2-0.35
				C106.48,59.77,104.4,60.95,102.55,60.95z"/>
			<path class="st2" d="M127.42,51.98c1.86,0,3.93,1.18,7.51,2.47c0.55,0.18,0.87,0.29,0.2-0.35c-0.67-0.64-2.91-2.92-4.77-4.71
				c-1.85-1.78-2.28-2.16-2.94-2.16c-0.66,0-1.09,0.38-2.94,2.16c-1.85,1.79-4.1,4.07-4.77,4.71c-0.67,0.64-0.37,0.54,0.2,0.35
				C123.49,53.16,125.57,51.98,127.42,51.98z"/>
			<path class="st2" d="M127.42,60.95c-1.86,0-3.93-1.18-7.51-2.47c-0.55-0.18-0.87-0.29-0.2,0.35c0.67,0.64,2.91,2.92,4.77,4.71
				c1.86,1.79,2.29,2.16,2.94,2.16c0.66,0,1.09-0.38,2.94-2.16c1.85-1.79,4.1-4.07,4.77-4.71c0.67-0.64,0.37-0.54-0.2-0.35
				C131.35,59.77,129.27,60.95,127.42,60.95z"/>
		</g>
	</g>
</g>
<g id="GG_POKER">
</g>
<g id="FREAM_ROOM">
</g>
<g id="JACOB">
</g>
<g id="guide" class="st0">
</g>
<g id="outline_guide" class="st0">
	<g class="st1">
		<path class="st13" d="M230,0v130H0V0H230 M243-13h-13H0h-13V0v130v13H0h230h13v-13V0V-13L243-13z"/>
	</g>
</g>
</svg>
